<?xml version="1.0" encoding="utf-8"?>
<!-- Generator: Adobe Illustrator 16.0.0, SVG Export Plug-In . SVG Version: 6.00 Build 0)  -->
<!DOCTYPE svg PUBLIC "-//W3C//DTD SVG 1.1//EN" "http://www.w3.org/Graphics/SVG/1.1/DTD/svg11.dtd">
<svg version="1.1" xmlns="http://www.w3.org/2000/svg" xmlns:xlink="http://www.w3.org/1999/xlink" x="0px" y="0px" width="512px"
	 height="512px" viewBox="0 0 512 512" enable-background="new 0 0 512 512" xml:space="preserve">
<g id="Capa_1" display="none">
	<g id="dots" display="inline">
		<g>
			<g>
				<path fill="none" stroke="#421F1F" stroke-width="0.9082" stroke-miterlimit="10" d="M72.3,62c-0.1-0.4-0.5-1.7-1-2.4
					c-0.5-0.7-1.1-1.3-1.9-1.9C65.5,55,60,57.1,59,62c-0.2,0.8-0.2,1.8,0,2.7c0.1,0.4,0.2,0.9,0.4,1.3c0.2,0.4,0.4,0.8,0.6,1.2
					c0.2,0.4,0.5,0.7,0.8,1c1.3,1.3,3,2,4.8,2c0.4,0,0.9,0,1.3-0.1c0.4-0.1,0.9-0.2,1.3-0.4c0.4-0.2,0.8-0.4,1.2-0.6
					c0.4-0.2,0.7-0.5,1-0.8c0.3-0.3,0.6-0.7,0.8-1c0.5-0.8,0.8-1.6,1-2.4C72.5,63.7,72.5,62.9,72.3,62z"/>
			</g>
		</g>
		<g>
			<g>
				<path fill="none" stroke="#421F1F" stroke-width="0.9082" stroke-miterlimit="10" d="M84.8,62c-0.1,0.4-0.1,0.9-0.1,1.3
					c0,0.4,0,0.9,0.1,1.3c0.1,0.4,0.2,0.9,0.4,1.3c0.2,0.4,0.4,0.8,0.6,1.2c0.2,0.4,0.5,0.7,0.8,1c1.3,1.3,3,2,4.8,2
					c0.4,0,0.9,0,1.3-0.1c0.4-0.1,0.9-0.2,1.3-0.4c0.4-0.2,0.8-0.4,1.2-0.6c0.4-0.2,0.7-0.5,1-0.8c0.3-0.3,0.6-0.7,0.8-1
					c0.2-0.4,0.5-0.8,0.6-1.2c0.2-0.4,0.3-0.8,0.4-1.3c0.1-0.4,0.1-0.9,0.1-1.3C98.3,55.3,86.5,53.8,84.8,62z"/>
			</g>
		</g>
		<g>
			<g>
				<path fill="none" stroke="#421F1F" stroke-width="0.9082" stroke-miterlimit="10" d="M124,62c-0.1-0.4-0.2-0.9-0.4-1.3
					c-0.2-0.4-0.4-0.8-0.6-1.2c-0.3-0.4-0.5-0.7-0.9-1c-0.3-0.3-0.7-0.6-1-0.9c-0.4-0.2-0.8-0.5-1.2-0.6c-4.2-1.7-8.5,1-9.3,5
					c-0.1,0.4-0.1,0.9-0.1,1.3c0,0.4,0,0.9,0.1,1.3c0.1,0.4,0.2,0.9,0.4,1.3c0.2,0.4,0.4,0.8,0.6,1.2c0.3,0.4,0.5,0.7,0.9,1
					c0.3,0.3,0.7,0.6,1,0.8c0.4,0.3,0.8,0.5,1.2,0.6c0.4,0.2,0.8,0.3,1.3,0.4c0.4,0.1,0.9,0.1,1.3,0.1c0.4,0,0.9,0,1.3-0.1
					c0.4-0.1,0.9-0.2,1.3-0.4c0.4-0.2,0.8-0.4,1.2-0.6c0.4-0.2,0.7-0.5,1-0.8c0.3-0.3,0.6-0.7,0.9-1c0.2-0.4,0.5-0.8,0.6-1.2
					c0.2-0.4,0.3-0.8,0.4-1.3c0.1-0.4,0.1-0.9,0.1-1.3C124.1,62.9,124.1,62.4,124,62z"/>
			</g>
		</g>
		<g>
			<g>
				<path fill="none" stroke="#421F1F" stroke-width="0.9082" stroke-miterlimit="10" d="M278,56.5H149c-3.8,0-6.8,3-6.8,6.8
					c0,3.8,3,6.8,6.8,6.8H278c3.8,0,6.8-3,6.8-6.8C284.8,59.6,281.7,56.5,278,56.5z"/>
			</g>
		</g>
		<g>
			<g>
				<path fill="none" stroke="#421F1F" stroke-width="0.9082" stroke-miterlimit="10" d="M326,56.5h-17.7c-3.8,0-6.8,3-6.8,6.8
					c0,3.8,3,6.8,6.8,6.8H326c3.8,0,6.8-3,6.8-6.8S329.8,56.5,326,56.5z"/>
			</g>
		</g>
	</g>
	<g id="c" display="inline">
		<g>
			<path fill="none" stroke="#421F1F" stroke-width="0.9082" stroke-miterlimit="10" d="M332.1,362.6c-2.1-1.7-7.1-1.7-9.7-0.4
				c-2.4,1.2-1.9,3.3-2.5,6.9c-0.9,4.5-4.1,7.5-10.1,7.5c-7.7,0-11.1-4.3-11.1-11.9v-28.9c0-7.7,3.4-11.9,10.9-11.9
				c7.2,0,10.2,3.5,10.8,10.2c0.1,3.4,3.3,4.2,6.7,4.2c5.2,0,6.7-1.9,6.7-6.6c0-20.4-29.2-24.7-41.4-14.3c-2.2,1.9-3.9,4.3-5.2,7.3
				c-3.1,7.2-1.5,14-1.9,39.9c0,10.9,4.4,19.4,14.6,22.4c11.5,3.4,26.9,0.3,32.1-10.7C333.6,372.8,335,364.9,332.1,362.6z"/>
		</g>
	</g>
	<g id="s_x5F_1" display="inline">
		<g>
			<path fill="none" stroke="#421F1F" stroke-width="0.9082" stroke-miterlimit="10" d="M385.2,355.2c-8.9-15.3-30.7-13.5-30.7-24.2
				c0-8.7,13.2-9.6,20.9-6c2.9,1.3,3.4,2,5.1,2c3.3,0,5.4-4.1,5.4-7.1c0-8.2-19.2-9.5-28.6-7.2c-6,1.5-10.9,4.6-13.9,9.9
				c-3.1,5.4-3.1,14.5,0.2,19.8c7.5,11.8,19.7,10.6,28.2,19c1.7,1.6,2.5,3.7,2.5,6.3c0,6.3-5.5,9-11.6,9c-6.4,0-9.6-2.6-14.5-6.7
				c-2.6-2.1-5.1-1.4-7.2,1.3c-11.1,14.6,34.4,28.5,44.9,4.9C388.4,370.1,388.4,360.7,385.2,355.2z"/>
		</g>
	</g>
	<g id="s_x5F_2" display="inline">
		<g>
			<path fill="none" stroke="#421F1F" stroke-width="0.9082" stroke-miterlimit="10" d="M439.2,355.2c-7.1-12.3-20.2-12.4-28.2-18.9
				c-3.5-2.8-3.4-8.3,0.6-11.1c3.5-2.4,11.4-3.2,17.8-0.2c2.9,1.3,3.4,2,5.1,2c3.3,0,5.4-4.1,5.4-7.1c0-5.4-8.8-7.5-14-8
				c-16.4-1.5-30.8,4.2-30.8,20.4c0,24.2,33.2,20,33.2,35.3c0,6.3-5.5,9-11.6,9c-11.8,0-14.6-10.9-19.9-7.2
				c-1.3,0.9-2.5,2.4-3.2,4.2c-4.3,12,26.7,21.8,41.1,9.5C442.9,375.9,443.2,362.2,439.2,355.2z"/>
		</g>
	</g>
	<g id="border" display="inline">
		<g id="border_x5F_1">
			<g>
				<path fill="none" stroke="#421F1F" stroke-width="1.8164" stroke-miterlimit="10" d="M475,235.3c-3.2-3.8-2.2-2.3-36.1-36.4
					c-26.7-27.8-48.8-24.7-70.9-24.7v-17.2c0-3.8-3-6.8-6.8-6.8c-3.8,0-6.8,3-6.8,6.8v17.2h-21.6v-34.9c0-9.8-7.9-17.7-17.7-17.7
					H75.7c-9.8,0-17.7,7.9-17.7,17.7v66.7c0,9.8,7.9,17.7,17.7,17.7h162.5v130.6c-0.1,0-197.6,0-185-0.1
					c-7.2-0.6-13.5-5.7-15.4-12.9c-1.2-4.3-0.4,9.3-0.6-238.3h317.2v22.2c0,3.8,3,6.8,6.8,6.8c3.8,0,6.8-3,6.8-6.8
					c0-75.1,0.4-72.8-1-78.3c-3.3-12.9-14.8-23.2-30.2-23.4c-294.3,0-282.2-0.1-284.2,0.1C35.4,25,23.6,39,23.6,54.7v41.5
					c0.4,252.4-1,241.2,1.1,248.7c3.7,13.5,15.9,23,30.1,23h183.5v40.5c0,3.8,3,6.8,6.8,6.8c3.8,0,6.8-3,6.8-6.8
					c0-0.8-0.1-214.6,0.1-215.5c0.4-2.4,2.2-4.5,5.2-5c0.1,0,0.5-0.1,0.4,0c0.9-0.1,124.7,0,124.8,0c9.1,0.3,15.5,3.5,19.1,9.4
					c4.2,6.9,3,10.2,3.1,41.1c0,8.5,5.5,16,13.4,18.7c2.8,1.4,4.7,1.1,43.1,1.1c13,1,13.6,9.8,13.8,12.7c0.1,2,0-12.9,0,197.8
					c0,3.4-2.8,6.1-6.1,6.1H258.1c-3.4,0-6.1-2.8-6.1-6.1v-28.4c0-3.8-3-6.8-6.8-6.8c-3.8,0-6.8,3-6.8,6.8v28.4
					c0,10.9,8.9,19.8,19.8,19.8h210.7c10.9,0,19.8-8.9,19.8-19.8V272.3C488.5,259.2,484.2,246.2,475,235.3z M38.5,48.2
					c2.7-6.6,9.1-11,16.3-11c301.8,0,283.1-0.2,285.7,0.4c6.3,1.3,11.4,6.1,13.2,12.2c1.3,4.3,0.5,4.2,0.7,39.7H37.2
					C37.4,53.2,36.5,53.1,38.5,48.2z M319.2,174.2c-64.9,0-61.8-0.1-64.3,0.3c-9.6,1.5-16.7,9.8-16.7,19.5v16.2H75.7
					c-2.2,0-4.1-1.9-4.1-4.1v-66.7c0-2.2,1.9-4.1,4.1-4.1h239.4c2.2,0,4.1,1.9,4.1,4.1V174.2L319.2,174.2z M423.2,244.4
					c-0.1,0-0.3-0.1-0.4-0.1c-2.7-0.7-4.6-3.2-4.6-5.9c-0.1-31.4,0.7-33.3-1.8-41.1c9.3,6.1,14.3,13.5,22.2,20.6
					c25.8,25.8,24.6,24.5,26.7,27.1C459.4,244,431.4,244.9,423.2,244.4z"/>
			</g>
		</g>
		<g>
			<g>
				<path fill="none" stroke="#421F1F" stroke-width="1.8164" stroke-miterlimit="10" d="M201.2,238.8H76.7
					c-10.3,0-18.7,8.4-18.7,18.7v59.3c0,10.3,8.4,18.7,18.7,18.7h24.7c3.8,0,6.8-3,6.8-6.8c0-3.8-3-6.8-6.8-6.8H76.7
					c-2.8,0-5.1-2.3-5.1-5.1v-59.3c0-2.8,2.3-5.1,5.1-5.1h124.5c2.8,0,5.1,2.3,5.1,5.1v59.3c0,2.8-2.3,5.1-5.1,5.1h-68
					c-3.8,0-6.8,3-6.8,6.8s3,6.8,6.8,6.8h68c10.3,0,18.7-8.4,18.7-18.7v-59.3C219.9,247.2,211.5,238.8,201.2,238.8z"/>
			</g>
		</g>
	</g>
</g>
<g id="film">
	<g id="filmCircles2">
		<path fill="none" stroke="#FFFFFF" stroke-width="0.9082" stroke-miterlimit="10" d="M147.5,70c0-8.5-7-15.5-15.5-15.5
			c-8.5,0-15.5,7-15.5,15.5c0,8.5,7,15.5,15.5,15.5C140.5,85.5,147.5,78.5,147.5,70z"/>
		<path fill="none" stroke="#FFFFFF" stroke-width="0.9082" stroke-miterlimit="10" d="M132.2,108.7c-4.3,0-7.7,3.5-7.7,7.7
			c0,4.3,3.5,7.8,7.8,7.8c4.3,0,7.7-3.5,7.7-7.8C140,112.2,136.5,108.7,132.2,108.7L132.2,108.7z"/>
		<path fill="none" stroke="#FFFFFF" stroke-width="0.9082" stroke-miterlimit="10" d="M132,178.5c8.5,0,15.5-7,15.5-15.5
			c0-8.5-7-15.5-15.5-15.5c-8.5,0-15.5,7-15.5,15.5C116.5,171.5,123.5,178.5,132,178.5z"/>
		<path fill="none" stroke="#FFFFFF" stroke-width="0.9082" stroke-miterlimit="10" d="M101,116.5c0-8.5-7-15.5-15.5-15.5
			c-8.5,0-15.5,7-15.5,15.5c0,8.5,7,15.5,15.5,15.5C94,132,101,125,101,116.5z"/>
		<path fill="none" stroke="#FFFFFF" stroke-width="0.9082" stroke-miterlimit="10" d="M194,116.5c0-8.5-7-15.5-15.5-15.5
			c-8.5,0-15.5,7-15.5,15.5c0,8.5,7,15.5,15.5,15.5C187,132,194,125,194,116.5z"/>
	</g>
	<g id="filmBorder2">
		<path fill="none" stroke="#FFFFFF" stroke-width="0.9082" stroke-miterlimit="10" d="M178.5,318c8.5,0,15.5,7,15.5,15.5
			c0,4.3,3.5,7.8,7.8,7.8c4.3,0,7.7-3.5,7.7-7.8c0-17.1-13.9-31-31-31c-17.1,0-31,13.9-31,31c0,17.1,13.9,31,31,31H256
			c17.1,0,31-13.9,31-31s-13.9-31-31-31c-17.1,0-31,13.9-31,31c0,4.3,3.5,7.8,7.7,7.8c4.3,0,7.8-3.5,7.8-7.8c0-8.5,7-15.5,15.5-15.5
			c8.5,0,15.5,7,15.5,15.5s-7,15.5-15.5,15.5h-77.5c-8.5,0-15.5-7-15.5-15.5S170,318,178.5,318z"/>
		<path fill="none" stroke="#FFFFFF" stroke-width="0.9082" stroke-miterlimit="10" d="M302.5,23.5c-38.1,0-70.9,23.1-85.3,55.9
			c-14.3-32.9-47.1-55.9-85.3-55.9c-51.3,0-93,41.7-93,93c0,21.6,7.6,42.6,21.3,59.2c2.7,3.3,7.6,3.8,10.9,1c3.3-2.7,3.8-7.6,1-10.9
			c-11.4-13.8-17.7-31.3-17.7-49.3C54.5,73.8,89.3,39,132,39c42.7,0,77.5,34.8,77.5,77.5c0,18-6.3,35.5-17.7,49.3
			c-2.7,3.3-2.3,8.2,1,10.9c1.4,1.2,3.2,1.8,4.9,1.8c2.2,0,4.4-1,6-2.8c5.6-6.8,10.1-14.3,13.5-22.2c3.4,7.9,7.9,15.4,13.5,22.2
			c2.7,3.3,7.6,3.8,10.9,1c3.3-2.7,3.8-7.6,1-10.9C231.3,152,225,134.5,225,116.5c0-42.7,34.8-77.5,77.5-77.5
			c42.7,0,77.5,34.8,77.5,77.5c0,18-6.3,35.5-17.7,49.3c-2.7,3.3-2.3,8.2,1,10.9c1.5,1.2,3.2,1.8,4.9,1.8c2.2,0,4.4-1,6-2.8
			c13.7-16.6,21.3-37.6,21.3-59.2C395.5,65.2,353.8,23.5,302.5,23.5z"/>
	</g>
	<g id="filmBorder1">
		<path fill="none" stroke="#FFFFFF" stroke-width="0.9082" stroke-miterlimit="10" d="M356.8,194h-279C56.4,194,39,211.4,39,232.7
			v69.8h-7.7c-4.3,0-7.8,3.5-7.8,7.7v46.5c0,4.3,3.5,7.8,7.8,7.8H39v69.8c0,21.4,17.4,38.8,38.8,38.8H194v7.8c0,4.3,3.5,7.8,7.8,7.8
			c4.3,0,7.7-3.5,7.7-7.8v-15.5c0-4.3-3.5-7.8-7.7-7.8h-124c-12.8,0-23.2-10.4-23.2-23.3v-77.5c0-4.3-3.5-7.7-7.7-7.7H39v-31h7.8
			c4.3,0,7.7-3.5,7.7-7.7v-77.5c0-12.8,10.4-23.2,23.2-23.2h279c12.8,0,23.2,10.4,23.2,23.2v201.5c0,12.8-10.4,23.3-23.2,23.3h-124
			c-4.3,0-7.7,3.5-7.7,7.8s3.5,7.7,7.7,7.7h124c21.4,0,38.8-17.4,38.8-38.8V232.7C395.5,211.4,378.1,194,356.8,194z"/>
		<path fill="none" stroke="#FFFFFF" stroke-width="0.9082" stroke-miterlimit="10" d="M481.2,250.3c-4.6-2.7-10.2-2.7-15.4,0.2
			l-50.9,28.9c-3.7,2.1-5,6.8-2.9,10.6c2.1,3.7,6.9,5,10.6,2.9l50.4-28.6v152.4l-50.4-28.8c-3.7-2.1-8.5-0.8-10.6,2.9
			c-2.1,3.7-0.8,8.4,2.9,10.6l50.7,29c2.3,1.4,4.9,2.1,7.5,2.1c2.6,0,5.1-0.7,7.5-2c4.8-2.7,7.9-7.6,7.9-12.5v-155
			C488.5,257.8,485.7,252.9,481.2,250.3z"/>
	</g>
	<g id="filmCircles1">
		<path fill="none" stroke="#FFFFFF" stroke-width="0.9082" stroke-miterlimit="10" d="M364.5,116.5c0-8.5-7-15.5-15.5-15.5
			c-8.5,0-15.5,7-15.5,15.5c0,8.5,7,15.5,15.5,15.5C357.5,132,364.5,125,364.5,116.5z"/>
		<path fill="none" stroke="#FFFFFF" stroke-width="0.9082" stroke-miterlimit="10" d="M302.7,108.7c-4.3,0-7.7,3.5-7.7,7.7
			c0,4.3,3.5,7.8,7.8,7.8c4.3,0,7.8-3.5,7.8-7.8C310.5,112.2,307,108.7,302.7,108.7L302.7,108.7z"/>
		<path fill="none" stroke="#FFFFFF" stroke-width="0.9082" stroke-miterlimit="10" d="M318,70c0-8.5-7-15.5-15.5-15.5
			c-8.5,0-15.5,7-15.5,15.5c0,8.5,7,15.5,15.5,15.5C311,85.5,318,78.5,318,70z"/>
		<path fill="none" stroke="#FFFFFF" stroke-width="0.9082" stroke-miterlimit="10" d="M302.5,178.5c8.5,0,15.5-7,15.5-15.5
			c0-8.5-7-15.5-15.5-15.5c-8.5,0-15.5,7-15.5,15.5C287,171.5,294,178.5,302.5,178.5z"/>
		<path fill="none" stroke="#FFFFFF" stroke-width="0.9082" stroke-miterlimit="10" d="M271.5,116.5c0-8.5-7-15.5-15.5-15.5
			c-8.5,0-15.5,7-15.5,15.5c0,8.5,7,15.5,15.5,15.5C264.5,132,271.5,125,271.5,116.5z"/>
	</g>
</g>
</svg>
