<?xml version="1.0" encoding="iso-8859-1"?>
<!-- Generator: Adobe Illustrator 19.0.0, SVG Export Plug-In . SVG Version: 6.00 Build 0)  -->
<svg xmlns="http://www.w3.org/2000/svg" xmlns:xlink="http://www.w3.org/1999/xlink" version="1.1" id="Capa_1" x="0px" y="0px" viewBox="0 0 512 512" style="enable-background:new 0 0 512 512;" xml:space="preserve" width="512px" height="512px">
<g>
	<g>
		<path d="M53.764,42.37c-0.101-0.469-0.578-1.885-1.121-2.689c-0.508-0.773-1.176-1.47-2.069-2.08    c-4.374-2.875-10.367-0.611-11.52,4.769c-0.187,0.919-0.187,2.02,0,2.94c0.101,0.47,0.24,0.95,0.431,1.4    c0.189,0.449,0.42,0.89,0.689,1.29c0.271,0.409,0.59,0.8,0.93,1.14c1.4,1.4,3.33,2.2,5.31,2.2c0.49,0,0.98-0.05,1.46-0.15    c0.479-0.09,0.95-0.24,1.399-0.43c0.461-0.18,0.891-0.41,1.301-0.69c0.41-0.27,0.79-0.58,1.14-0.93c0.35-0.34,0.66-0.73,0.93-1.14    c0.558-0.826,0.918-1.738,1.12-2.691C53.948,44.304,53.954,43.407,53.764,42.37z" fill="#FFFFFF"/>
	</g>
</g>
<g>
	<g>
		<path d="M67.502,42.37c-0.1,0.49-0.15,0.98-0.15,1.471c0,0.491,0.051,0.979,0.15,1.47c0.1,0.47,0.24,0.95,0.43,1.4    c0.181,0.449,0.42,0.89,0.69,1.29c0.27,0.409,0.58,0.8,0.93,1.14c1.391,1.4,3.33,2.2,5.299,2.2c0.49,0,0.98-0.05,1.471-0.15    c0.479-0.09,0.949-0.24,1.399-0.43c0.45-0.18,0.891-0.41,1.3-0.69c0.41-0.27,0.79-0.58,1.141-0.93c0.34-0.34,0.66-0.73,0.93-1.14    c0.271-0.4,0.5-0.841,0.69-1.29c0.189-0.45,0.33-0.931,0.43-1.4c0.09-0.49,0.14-0.979,0.14-1.47    C82.35,35.052,69.422,33.311,67.502,42.37z" fill="#FFFFFF"/>
	</g>
</g>
<g>
	<g>
		<path d="M110.647,42.371c-0.09-0.47-0.24-0.95-0.421-1.4c-0.19-0.45-0.42-0.89-0.69-1.29c-0.28-0.41-0.59-0.8-0.94-1.14    c-0.34-0.351-0.72-0.66-1.14-0.94c-0.4-0.27-0.84-0.5-1.29-0.69c-4.635-1.85-9.379,1.07-10.219,5.459    c-0.101,0.49-0.15,0.98-0.15,1.471c0,0.491,0.05,0.979,0.15,1.47c0.09,0.47,0.24,0.95,0.43,1.4c0.18,0.449,0.41,0.89,0.68,1.29    c0.28,0.409,0.591,0.8,0.94,1.14c0.34,0.35,0.729,0.66,1.14,0.93c0.41,0.28,0.84,0.511,1.29,0.69c0.46,0.19,0.931,0.34,1.41,0.43    c0.48,0.101,0.97,0.15,1.46,0.15s0.98-0.05,1.47-0.15c0.481-0.09,0.95-0.24,1.4-0.43c0.45-0.18,0.89-0.41,1.29-0.69    c0.42-0.27,0.8-0.58,1.14-0.93c0.351-0.34,0.66-0.73,0.94-1.14c0.27-0.4,0.5-0.841,0.69-1.29c0.181-0.45,0.33-0.931,0.421-1.4    c0.1-0.49,0.149-0.979,0.149-1.47C110.796,43.351,110.746,42.862,110.647,42.371z" fill="#FFFFFF"/>
	</g>
</g>
<g>
	<g>
		<path d="M280.175,36.342H138.239c-4.143,0-7.499,3.357-7.499,7.499c0,4.143,3.357,7.499,7.499,7.499h141.936    c4.143,0,7.499-3.357,7.499-7.499C287.675,39.699,284.318,36.342,280.175,36.342z" fill="#FFFFFF"/>
	</g>
</g>
<g>
	<g>
		<path d="M333.097,36.342h-19.52c-4.143,0-7.499,3.357-7.499,7.499c0,4.143,3.357,7.499,7.499,7.499h19.52    c4.143,0,7.499-3.357,7.499-7.499C340.596,39.699,337.239,36.342,333.097,36.342z" fill="#FFFFFF"/>
	</g>
</g>
<g>
	<g>
		<path d="M497.147,233.252c-3.52-4.173-2.393-2.583-39.708-40.055c-29.436-30.657-53.759-27.245-78.096-27.249V147.05    c0-4.143-3.357-7.499-7.499-7.499c-4.143,0-7.499,3.357-7.499,7.499v18.898h-23.748v-38.385c0-10.751-8.747-19.498-19.498-19.498    H57.527c-10.751,0-19.498,8.747-19.498,19.498v73.487c0,10.751,8.747,19.498,19.498,19.498h178.971v143.755    c-0.1,0-217.621-0.012-203.723-0.078c-7.951-0.661-14.849-6.259-17.005-14.173c-1.298-4.768-0.445,10.239-0.686-262.418h349.259    v24.419c0,4.143,3.357,7.499,7.499,7.499c4.143,0,7.499-3.357,7.499-7.499c0-82.673,0.455-80.183-1.081-86.233    c-3.65-14.183-16.281-25.511-33.273-25.773C20.94,0.061,34.296-0.015,32.076,0.135C13.069,1.661,0.087,17.077,0.087,34.402v45.733    c0.418,277.901-1.046,265.559,1.212,273.858c4.038,14.82,17.544,25.31,33.142,25.31h202.057v44.577    c0,4.143,3.357,7.499,7.499,7.499c4.143,0,7.499-3.357,7.499-7.499c0-0.888-0.075-236.291,0.094-237.29    c0.454-2.678,2.416-4.925,5.703-5.558c0.101-0.012,0.534-0.066,0.434-0.054c0.957-0.09,137.328,0.003,137.429,0.001    c10.027,0.364,17.097,3.834,21.03,10.326c4.597,7.593,3.335,11.179,3.396,45.293c0,9.359,6.015,17.64,14.791,20.606    c3.111,1.519,5.183,1.162,47.422,1.162c14.368,1.077,14.974,10.772,15.157,14.037c0.09,2.237,0.034-14.225,0.048,217.791    c0,3.732-3.036,6.767-6.768,6.767H258.265c-3.732,0-6.768-3.036-6.768-6.767v-31.318c0-4.143-3.357-7.499-7.499-7.499    c-4.143,0-7.499,3.357-7.499,7.499v31.318c0,12.002,9.765,21.766,21.767,21.766h231.969c12.002,0,21.767-9.765,21.767-21.766    V273.981C512,259.562,507.22,245.248,497.147,233.252z M16.506,27.155c2.951-7.303,10.049-12.11,17.935-12.11    c332.278,0.039,311.744-0.18,314.596,0.434c6.942,1.486,12.525,6.678,14.507,13.457c1.403,4.752,0.532,4.666,0.799,43.7H15.085    C15.355,32.722,14.278,32.647,16.506,27.155z M325.597,165.948c-71.452,0.031-68.065-0.152-70.747,0.285    c-10.585,1.681-18.352,10.831-18.352,21.481v17.836H57.527c-2.439,0-4.5-2.061-4.5-4.5v-73.487c0-2.439,2.061-4.5,4.5-4.5h263.571    c2.44,0,4.5,2.061,4.5,4.5V165.948z M440.053,243.258c-0.148-0.05-0.3-0.095-0.454-0.136c-2.954-0.79-5.017-3.474-5.017-6.524    c-0.137-34.62,0.813-36.678-1.99-45.231c10.221,6.757,15.728,14.851,24.455,22.651c28.458,28.459,27.081,26.943,29.369,29.793    C479.913,242.794,449.147,243.768,440.053,243.258z" fill="#FFFFFF"/>
	</g>
</g>
<g>
	<g>
		<path d="M339.815,373.32c-2.354-1.91-7.81-1.904-10.708-0.455c-2.69,1.345-2.042,3.616-2.791,7.575    c-0.949,5.003-4.489,8.259-11.106,8.259c-8.439,0-12.19-4.727-12.19-13.101v-31.781c0-8.429,3.73-13.1,11.962-13.1    c7.945,0,11.228,3.873,11.847,11.278c0.161,3.755,3.632,4.669,7.404,4.669c5.738,0,7.404-2.087,7.404-7.29    c0-22.47-32.196-27.227-45.622-15.719c-2.393,2.051-4.292,4.727-5.695,8.03c-3.386,7.953-1.616,15.465-2.107,43.913    c0,12.04,4.803,21.312,16.061,24.661c12.621,3.756,29.615,0.379,35.369-11.79C341.491,384.565,342.952,375.874,339.815,373.32z" fill="#FFFFFF"/>
	</g>
</g>
<g>
	<g>
		<path d="M398.249,365.178c-9.775-16.895-33.832-14.827-33.832-26.599c0-9.582,14.534-10.561,23.01-6.606    c3.186,1.485,3.739,2.164,5.582,2.164c3.652,0,5.923-4.567,5.923-7.86c0-8.976-21.171-10.41-31.497-7.916    c-6.611,1.597-11.983,5.107-15.321,10.879c-3.414,5.897-3.395,16.019,0.228,21.758c8.235,13.04,21.663,11.669,31.099,20.902    c1.823,1.785,2.734,4.084,2.734,6.892c0,6.951-6.094,9.909-12.759,9.909c-7,0-10.561-2.89-16.004-7.405    c-2.839-2.343-5.649-1.555-7.917,1.425c-12.217,16.021,37.853,31.422,49.438,5.354    C401.796,381.633,401.787,371.296,398.249,365.178z" fill="#FFFFFF"/>
	</g>
</g>
<g>
	<g>
		<path d="M457.711,365.176c-7.839-13.549-22.296-13.693-31.099-20.847c-3.839-3.121-3.708-9.175,0.627-12.189    c3.818-2.651,12.503-3.505,19.649-0.17c3.186,1.485,3.739,2.164,5.582,2.164c3.652,0,5.923-4.567,5.923-7.86    c0-5.917-9.712-8.242-15.435-8.77c-18.047-1.67-33.888,4.654-33.888,22.44c0,26.661,36.565,22.059,36.565,38.844    c0.001,6.953-6.094,9.911-12.758,9.911c-12.964,0-16.073-12.038-21.871-7.974c-1.464,1.023-2.765,2.643-3.475,4.612    c-4.766,13.266,29.417,23.971,45.223,10.423C461.764,388.039,462.164,372.88,457.711,365.176z" fill="#FFFFFF"/>
	</g>
</g>
<g>
	<g>
		<path d="M195.647,237.045H58.596c-11.341,0-20.566,9.226-20.566,20.566v65.327c0,11.341,9.226,20.566,20.566,20.566h27.206    c4.143,0,7.499-3.357,7.499-7.499c0-4.143-3.357-7.499-7.499-7.499H58.596c-3.07,0-5.567-2.498-5.567-5.567v-65.327    c0-3.07,2.498-5.567,5.567-5.567h137.051c3.07,0,5.566,2.498,5.566,5.567v65.327c0.001,3.07-2.497,5.567-5.566,5.567h-74.849    c-4.143,0-7.499,3.357-7.499,7.499s3.357,7.499,7.499,7.499h74.849c11.34,0,20.565-9.226,20.565-20.566v-65.327    C216.211,246.27,206.985,237.045,195.647,237.045z" fill="#FFFFFF"/>
	</g>
</g>
<g>
</g>
<g>
</g>
<g>
</g>
<g>
</g>
<g>
</g>
<g>
</g>
<g>
</g>
<g>
</g>
<g>
</g>
<g>
</g>
<g>
</g>
<g>
</g>
<g>
</g>
<g>
</g>
<g>
</g>
</svg>
