<?xml version="1.0" encoding="utf-8"?>
<!-- Generator: Adobe Illustrator 16.0.0, SVG Export Plug-In . SVG Version: 6.00 Build 0)  -->
<!DOCTYPE svg PUBLIC "-//W3C//DTD SVG 1.1//EN" "http://www.w3.org/Graphics/SVG/1.1/DTD/svg11.dtd">
<svg version="1.1" id="Capa_1" xmlns="http://www.w3.org/2000/svg" xmlns:xlink="http://www.w3.org/1999/xlink" x="0px" y="0px"
	 width="512px" height="512px" viewBox="0 0 512 512" enable-background="new 0 0 512 512" xml:space="preserve">
<g id="dots">
	<g>
		<g>
			<path fill="none" stroke="#FFFFFF" stroke-width="0.9082" stroke-miterlimit="10" d="M72.3,62c-0.1-0.4-0.5-1.7-1-2.4
				c-0.5-0.7-1.1-1.3-1.9-1.9C65.5,55,60,57.1,59,62c-0.2,0.8-0.2,1.8,0,2.7c0.1,0.4,0.2,0.9,0.4,1.3c0.2,0.4,0.4,0.8,0.6,1.2
				c0.2,0.4,0.5,0.7,0.8,1c1.3,1.3,3,2,4.8,2c0.4,0,0.9,0,1.3-0.1c0.4-0.1,0.9-0.2,1.3-0.4c0.4-0.2,0.8-0.4,1.2-0.6
				c0.4-0.2,0.7-0.5,1-0.8c0.3-0.3,0.6-0.7,0.8-1c0.5-0.8,0.8-1.6,1-2.4C72.5,63.7,72.5,62.9,72.3,62z"/>
		</g>
	</g>
	<g>
		<g>
			<path fill="none" stroke="#FFFFFF" stroke-width="0.9082" stroke-miterlimit="10" d="M84.8,62c-0.1,0.4-0.1,0.9-0.1,1.3
				c0,0.4,0,0.9,0.1,1.3c0.1,0.4,0.2,0.9,0.4,1.3c0.2,0.4,0.4,0.8,0.6,1.2c0.2,0.4,0.5,0.7,0.8,1c1.3,1.3,3,2,4.8,2
				c0.4,0,0.9,0,1.3-0.1c0.4-0.1,0.9-0.2,1.3-0.4c0.4-0.2,0.8-0.4,1.2-0.6c0.4-0.2,0.7-0.5,1-0.8c0.3-0.3,0.6-0.7,0.8-1
				c0.2-0.4,0.5-0.8,0.6-1.2c0.2-0.4,0.3-0.8,0.4-1.3c0.1-0.4,0.1-0.9,0.1-1.3C98.3,55.3,86.5,53.8,84.8,62z"/>
		</g>
	</g>
	<g>
		<g>
			<path fill="none" stroke="#FFFFFF" stroke-width="0.9082" stroke-miterlimit="10" d="M124,62c-0.1-0.4-0.2-0.9-0.4-1.3
				c-0.2-0.4-0.4-0.8-0.6-1.2c-0.3-0.4-0.5-0.7-0.9-1c-0.3-0.3-0.7-0.6-1-0.9c-0.4-0.2-0.8-0.5-1.2-0.6c-4.2-1.7-8.5,1-9.3,5
				c-0.1,0.4-0.1,0.9-0.1,1.3c0,0.4,0,0.9,0.1,1.3c0.1,0.4,0.2,0.9,0.4,1.3c0.2,0.4,0.4,0.8,0.6,1.2c0.3,0.4,0.5,0.7,0.9,1
				c0.3,0.3,0.7,0.6,1,0.8c0.4,0.3,0.8,0.5,1.2,0.6c0.4,0.2,0.8,0.3,1.3,0.4c0.4,0.1,0.9,0.1,1.3,0.1c0.4,0,0.9,0,1.3-0.1
				c0.4-0.1,0.9-0.2,1.3-0.4c0.4-0.2,0.8-0.4,1.2-0.6c0.4-0.2,0.7-0.5,1-0.8c0.3-0.3,0.6-0.7,0.9-1c0.2-0.4,0.5-0.8,0.6-1.2
				c0.2-0.4,0.3-0.8,0.4-1.3c0.1-0.4,0.1-0.9,0.1-1.3C124.1,62.9,124.1,62.4,124,62z"/>
		</g>
	</g>
	<g>
		<g>
			<path fill="none" stroke="#FFFFFF" stroke-width="0.9082" stroke-miterlimit="10" d="M278,56.5H149c-3.8,0-6.8,3-6.8,6.8
				c0,3.8,3,6.8,6.8,6.8H278c3.8,0,6.8-3,6.8-6.8C284.8,59.6,281.7,56.5,278,56.5z"/>
		</g>
	</g>
	<g>
		<g>
			<path fill="none" stroke="#FFFFFF" stroke-width="0.9082" stroke-miterlimit="10" d="M326,56.5h-17.7c-3.8,0-6.8,3-6.8,6.8
				c0,3.8,3,6.8,6.8,6.8H326c3.8,0,6.8-3,6.8-6.8S329.8,56.5,326,56.5z"/>
		</g>
	</g>
</g>
<g id="c">
	<g>
		<path fill="none" stroke="#FFFFFF" stroke-width="0.9082" stroke-miterlimit="10" d="M332.1,362.6c-2.1-1.7-7.1-1.7-9.7-0.4
			c-2.4,1.2-1.9,3.3-2.5,6.9c-0.9,4.5-4.1,7.5-10.1,7.5c-7.7,0-11.1-4.3-11.1-11.9v-28.9c0-7.7,3.4-11.9,10.9-11.9
			c7.2,0,10.2,3.5,10.8,10.2c0.1,3.4,3.3,4.2,6.7,4.2c5.2,0,6.7-1.9,6.7-6.6c0-20.4-29.2-24.7-41.4-14.3c-2.2,1.9-3.9,4.3-5.2,7.3
			c-3.1,7.2-1.5,14-1.9,39.9c0,10.9,4.4,19.4,14.6,22.4c11.5,3.4,26.9,0.3,32.1-10.7C333.6,372.8,335,364.9,332.1,362.6z"/>
	</g>
</g>
<g id="s_x5F_1">
	<g>
		<path fill="none" stroke="#FFFFFF" stroke-width="0.9082" stroke-miterlimit="10" d="M385.2,355.2c-8.9-15.3-30.7-13.5-30.7-24.2
			c0-8.7,13.2-9.6,20.9-6c2.9,1.3,3.4,2,5.1,2c3.3,0,5.4-4.1,5.4-7.1c0-8.2-19.2-9.5-28.6-7.2c-6,1.5-10.9,4.6-13.9,9.9
			c-3.1,5.4-3.1,14.5,0.2,19.8c7.5,11.8,19.7,10.6,28.2,19c1.7,1.6,2.5,3.7,2.5,6.3c0,6.3-5.5,9-11.6,9c-6.4,0-9.6-2.6-14.5-6.7
			c-2.6-2.1-5.1-1.4-7.2,1.3c-11.1,14.6,34.4,28.5,44.9,4.9C388.4,370.1,388.4,360.7,385.2,355.2z"/>
	</g>
</g>
<g id="s_x5F_2">
	<g>
		<path fill="none" stroke="#FFFFFF" stroke-width="0.9082" stroke-miterlimit="10" d="M439.2,355.2c-7.1-12.3-20.2-12.4-28.2-18.9
			c-3.5-2.8-3.4-8.3,0.6-11.1c3.5-2.4,11.4-3.2,17.8-0.2c2.9,1.3,3.4,2,5.1,2c3.3,0,5.4-4.1,5.4-7.1c0-5.4-8.8-7.5-14-8
			c-16.4-1.5-30.8,4.2-30.8,20.4c0,24.2,33.2,20,33.2,35.3c0,6.3-5.5,9-11.6,9c-11.8,0-14.6-10.9-19.9-7.2c-1.3,0.9-2.5,2.4-3.2,4.2
			c-4.3,12,26.7,21.8,41.1,9.5C442.9,375.9,443.2,362.2,439.2,355.2z"/>
	</g>
</g>
<g id="border">
	<g id="border_x5F_1">
		<g>
			<path fill="none" stroke="#FFFFFF" stroke-width="1.8164" stroke-miterlimit="10" d="M475,235.3c-3.2-3.8-2.2-2.3-36.1-36.4
				c-26.7-27.8-48.8-24.7-70.9-24.7v-17.2c0-3.8-3-6.8-6.8-6.8c-3.8,0-6.8,3-6.8,6.8v17.2h-21.6v-34.9c0-9.8-7.9-17.7-17.7-17.7
				H75.7c-9.8,0-17.7,7.9-17.7,17.7v66.7c0,9.8,7.9,17.7,17.7,17.7h162.5v130.6c-0.1,0-197.6,0-185-0.1c-7.2-0.6-13.5-5.7-15.4-12.9
				c-1.2-4.3-0.4,9.3-0.6-238.3h317.2v22.2c0,3.8,3,6.8,6.8,6.8c3.8,0,6.8-3,6.8-6.8c0-75.1,0.4-72.8-1-78.3
				c-3.3-12.9-14.8-23.2-30.2-23.4c-294.3,0-282.2-0.1-284.2,0.1C35.4,25,23.6,39,23.6,54.7v41.5c0.4,252.4-1,241.2,1.1,248.7
				c3.7,13.5,15.9,23,30.1,23h183.5v40.5c0,3.8,3,6.8,6.8,6.8c3.8,0,6.8-3,6.8-6.8c0-0.8-0.1-214.6,0.1-215.5c0.4-2.4,2.2-4.5,5.2-5
				c0.1,0,0.5-0.1,0.4,0c0.9-0.1,124.7,0,124.8,0c9.1,0.3,15.5,3.5,19.1,9.4c4.2,6.9,3,10.2,3.1,41.1c0,8.5,5.5,16,13.4,18.7
				c2.8,1.4,4.7,1.1,43.1,1.1c13,1,13.6,9.8,13.8,12.7c0.1,2,0-12.9,0,197.8c0,3.4-2.8,6.1-6.1,6.1H258.1c-3.4,0-6.1-2.8-6.1-6.1
				v-28.4c0-3.8-3-6.8-6.8-6.8c-3.8,0-6.8,3-6.8,6.8v28.4c0,10.9,8.9,19.8,19.8,19.8h210.7c10.9,0,19.8-8.9,19.8-19.8V272.3
				C488.5,259.2,484.2,246.2,475,235.3z M38.5,48.2c2.7-6.6,9.1-11,16.3-11c301.8,0,283.1-0.2,285.7,0.4c6.3,1.3,11.4,6.1,13.2,12.2
				c1.3,4.3,0.5,4.2,0.7,39.7H37.2C37.4,53.2,36.5,53.1,38.5,48.2z M319.2,174.2c-64.9,0-61.8-0.1-64.3,0.3
				c-9.6,1.5-16.7,9.8-16.7,19.5v16.2H75.7c-2.2,0-4.1-1.9-4.1-4.1v-66.7c0-2.2,1.9-4.1,4.1-4.1h239.4c2.2,0,4.1,1.9,4.1,4.1V174.2
				L319.2,174.2z M423.2,244.4c-0.1,0-0.3-0.1-0.4-0.1c-2.7-0.7-4.6-3.2-4.6-5.9c-0.1-31.4,0.7-33.3-1.8-41.1
				c9.3,6.1,14.3,13.5,22.2,20.6c25.8,25.8,24.6,24.5,26.7,27.1C459.4,244,431.4,244.9,423.2,244.4z"/>
		</g>
	</g>
	<g>
		<g>
			<path fill="none" stroke="#FFFFFF" stroke-width="1.8164" stroke-miterlimit="10" d="M201.2,238.8H76.7
				c-10.3,0-18.7,8.4-18.7,18.7v59.3c0,10.3,8.4,18.7,18.7,18.7h24.7c3.8,0,6.8-3,6.8-6.8c0-3.8-3-6.8-6.8-6.8H76.7
				c-2.8,0-5.1-2.3-5.1-5.1v-59.3c0-2.8,2.3-5.1,5.1-5.1h124.5c2.8,0,5.1,2.3,5.1,5.1v59.3c0,2.8-2.3,5.1-5.1,5.1h-68
				c-3.8,0-6.8,3-6.8,6.8s3,6.8,6.8,6.8h68c10.3,0,18.7-8.4,18.7-18.7v-59.3C219.9,247.2,211.5,238.8,201.2,238.8z"/>
		</g>
	</g>
</g>
</svg>
