<?xml version="1.0" encoding="utf-8"?>
<!-- Generator: Adobe Illustrator 16.0.0, SVG Export Plug-In . SVG Version: 6.00 Build 0)  -->
<!DOCTYPE svg PUBLIC "-//W3C//DTD SVG 1.1//EN" "http://www.w3.org/Graphics/SVG/1.1/DTD/svg11.dtd">
<svg version="1.1" id="Layer_1" xmlns="http://www.w3.org/2000/svg" xmlns:xlink="http://www.w3.org/1999/xlink" x="0px" y="0px"
	 width="73px" height="28.7px" viewBox="0 0 73 28.7" enable-background="new 0 0 73 28.7" xml:space="preserve">
<rect width="73" height="28.7"/>
<g>
	<path fill="#FFFFFF" d="M18.8,18.8V19l-2.2,2.2l-6.4-6.3v-0.4l6.4-6.3l2.2,2.2v0.2l-4.4,4.2L18.8,18.8z"/>
	<path fill="#FFFFFF" d="M26.5,4v7.6c0.8-1.4,3-2.2,4.5-2.2c4,0,7,2.4,7,7.1c0,4.5-3,7.1-7,7.1c-1.7,0-3.4-0.6-4.4-2.2l-0.2,1.9
		h-3.2V4H26.5z M26.7,16.5c0,2.5,1.8,4,4,4c2.2,0,3.9-1.6,3.9-4c0-2.5-1.7-4-3.9-4C28.5,12.5,26.7,14.1,26.7,16.5z"/>
	<path fill="#FFFFFF" d="M44.5,9.7l0.2,1.6c1.1-1.7,2.5-1.9,3.9-1.9c1.4,0,2.8,0.6,3.5,1.3l-1.5,2.9c-0.7-0.6-1.3-0.9-2.4-0.9
		c-1.8,0-3.4,0.9-3.4,3.5v7.2h-3.4V9.7H44.5z"/>
	<path fill="#FFFFFF" d="M58.7,14.7l-4.4-4.2v-0.2l2.2-2.2l6.4,6.3v0.4l-6.4,6.3L54.4,19v-0.2L58.7,14.7z"/>
</g>
</svg>
