<?xml version="1.0" encoding="utf-8"?>
<!-- Generator: Adobe Illustrator 16.0.0, SVG Export Plug-In . SVG Version: 6.00 Build 0)  -->
<!DOCTYPE svg PUBLIC "-//W3C//DTD SVG 1.1//EN" "http://www.w3.org/Graphics/SVG/1.1/DTD/svg11.dtd">
<svg version="1.1" id="Layer_1" xmlns="http://www.w3.org/2000/svg" xmlns:xlink="http://www.w3.org/1999/xlink" x="0px" y="0px"
	 width="300px" height="300px" viewBox="0 0 300 300" enable-background="new 0 0 300 300" xml:space="preserve">
<text transform="matrix(0.583 0 0 0.583 32.1401 -18.063)" fill="#FFFFFF" font-family="'Roboto-Regular'" font-size="22.4422" letter-spacing="1.715">AHORA</text>
<text transform="matrix(0.583 0 0 0.583 101.2183 -18.063)" fill="#FFFFFF" font-family="'Roboto-Regular'" font-size="22.4422" letter-spacing="1.715">LES IVANS CIRCO</text>
<text transform="matrix(0.583 0 0 0.583 32.1401 5.252)" fill="#FFFFFF" font-family="'Roboto-Regular'" font-size="22.4422" letter-spacing="1.715">MÁS TARDE</text>
<text transform="matrix(0.583 0 0 0.583 194.4805 3.2407)" fill="#FFFFFF" font-family="'Roboto-Regular'" font-size="22.4422" letter-spacing="1.715">ONDA VAGA</text>
<text transform="matrix(0.4081 0 0 0.4081 58.0439 -18.063)" fill="#FFFFFF" font-family="'Avenir-Roman'" font-size="22.4422">ahora</text>
<text transform="matrix(0.583 0 0 0.583 94.4951 -18.063)" fill="#FFFFFF" font-family="'Avenir-Roman'" font-size="22.4422" letter-spacing="1.715"> </text>
<rect x="-5.144" y="-41.332" fill="#191919" width="310.718" height="462.332"/>
<image overflow="visible" opacity="0.3" width="736" height="490" xlink:href="../../../../../../Volumes/Rychter/Disco/Brenda/revisar/1er cuatrimestre/pendrive 1-8/tp 2 recuperatorio copy/primera entrega/Diseño/1faa240737a417973355699cd864d7a3.jpg"  transform="matrix(0.4217 0 0 0.4217 -5.0493 -36.708)">
</image>
<g>
	<g>
		<g>
			<path fill="none" stroke="#FFFFFF" stroke-width="1.1513" stroke-miterlimit="10" d="M273.918-17.695
				c0,1.731-1.402,3.135-3.136,3.135c-1.729,0-3.135-1.404-3.135-3.135c0-1.73,1.406-3.133,3.135-3.133
				C272.516-20.828,273.918-19.426,273.918-17.695z"/>
		</g>
		<g>
			<circle fill="none" stroke="#FFFFFF" stroke-width="1.1513" stroke-miterlimit="10" cx="286.139" cy="-17.695" r="3.133"/>
		</g>
		<g>
			<circle fill="none" stroke="#FFFFFF" stroke-width="1.1513" stroke-miterlimit="10" cx="278.462" cy="-15.084" r="3.133"/>
			<path fill="none" stroke="#FFFFFF" stroke-miterlimit="10" d="M267.5-1.5h19v-5.655c0,0-3.973-2.584-9.5-2.646
				c-5.535-0.061-9.5,2.797-9.5,2.797V-1.5z"/>
		</g>
	</g>
	<path fill="none" stroke="#FFFFFF" stroke-miterlimit="10" d="M277.402-9.642c0,0,1.172-2.741,6.743-2.782
		c5.572-0.041,6.354,2.658,6.354,2.658V-6.5H286"/>
	<path fill="none" stroke="#FFFFFF" stroke-miterlimit="10" d="M277.426-9.642c0,0-2.087-2.741-7.663-2.782
		c-5.571-0.041-7.263,2.658-7.263,2.658V-6.5h4.5"/>
</g>
<text transform="matrix(0.583 0 0 0.583 101.7046 109.4106)" fill="#FFFFFF" font-family="'Avenir-Roman'" font-size="19.2839">22:30</text>
<text transform="matrix(0.4081 0 0 0.4081 56.0366 109.5083)" fill="#FFFFFF" font-family="'Avenir-Roman'" font-size="22.4422">sábado</text>
<text transform="matrix(0.583 0 0 0.583 98.6699 109.5083)" fill="#FFFFFF" font-family="'Avenir-Roman'" font-size="22.4422" letter-spacing="1.715"> </text>
<text transform="matrix(0.4081 0 0 0.4081 161.0889 109.2207)" fill="#FFFFFF" font-family="'Avenir-Roman'" font-size="22.4422">sala</text>
<text transform="matrix(0.583 0 0 0.583 186.623 109.2207)" fill="#FFFFFF" font-family="'Avenir-Roman'" font-size="22.4422" letter-spacing="1.715"> </text>
<text transform="matrix(0.4081 0 0 0.4081 191.3203 109.2207)" fill="#FFFFFF" font-family="'Avenir-Roman'" font-size="22.4422">cubierta</text>
<rect x="46.524" y="151.777" fill="none" stroke="#FFFFFF" stroke-width="1.7269" stroke-miterlimit="10" width="210.991" height="33.732"/>
<text transform="matrix(0.4081 0 0 0.4081 61.2114 173.6221)" fill="#FFFFFF" font-family="'Avenir-Roman'" font-size="37.4164" letter-spacing="2.45">comprar</text>
<text transform="matrix(0.583 0 0 0.583 145.667 173.6221)" fill="#FFFFFF" font-family="'Avenir-Roman'" font-size="37.4164" letter-spacing="1.715"> </text>
<text transform="matrix(0.4081 0 0 0.4081 153.498 173.6221)" fill="#FFFFFF" font-family="'Avenir-Roman'" font-size="37.4164" letter-spacing="2.45">entradas</text>
<text transform="matrix(0.583 0 0 0.583 71.749 91.7334)" fill="#FFFFFF" font-family="'Avenir-Black'" font-size="37.9921" letter-spacing="1.715">ONDA VAGA</text>
<g>
	<text transform="matrix(0.4081 0 0 0.4081 136.625 109.5083)" fill="#FFFFFF" font-family="'Avenir-Roman'" font-size="22.4422">hs</text>
</g>
<text transform="matrix(0.583 0 0 0.583 134.3228 140.5835)" fill="#FFFFFF" font-family="'Avenir-Roman'" font-size="54.8047">95</text>
<g>
</g>
<g>
	
		<text transform="matrix(0.583 0 0 0.583 123.9585 139.2354)" fill="#FFFFFF" font-family="'Avenir-Roman'" font-size="27.0641" letter-spacing="1.715">$</text>
</g>
<path fill="none" stroke="#FFFFFF" stroke-width="1.1513" stroke-miterlimit="10" d="M284.749,161.898c0,0,8.47-4.826,8.507-10.128
	c0,0,0.268-2.577-1.869-4.17c0,0-4.084-2.927-6.638,1.231c0,0-2.442-4.104-6.788-1.231c0,0-2.006,1.538-1.824,4.284
	C276.137,151.885,276.014,156.92,284.749,161.898z"/>
<g>
	<text transform="matrix(0.4081 0 0 0.4081 14.2803 206.1875)" fill="#FFFFFF" font-family="'Avenir-Black'" font-size="22.4422">la</text>
	
		<text transform="matrix(0.583 0 0 0.583 27.4688 206.1875)" fill="#FFFFFF" font-family="'Avenir-Black'" font-size="22.4422" letter-spacing="1.715"> </text>
	<text transform="matrix(0.4081 0 0 0.4081 32.4009 206.1875)" fill="#FFFFFF" font-family="'Avenir-Black'" font-size="22.4422">banda</text>
</g>
<g>
	<text transform="matrix(0.4081 0 0 0.4081 83.3584 206.1875)" fill="#939393" font-family="'Avenir-Roman'" font-size="22.4422">fotos</text>
</g>
<g>
	<rect x="14.575" y="220.572" fill="none" width="275.469" height="154.373"/>
	<text transform="matrix(1 0 0 1 14.5752 230.3652)"><tspan x="0" y="0" fill="#FFFFFF" font-family="'Avenir-Light'" font-size="12.9518">Con siete años de historia, la banda ya tiene en </tspan><tspan x="0" y="12.951" fill="#FFFFFF" font-family="'Avenir-Light'" font-size="12.9518">su haber tres discos de estudio: </tspan><tspan x="185.027" y="12.951" fill="#FFFFFF" font-family="'Avenir-Medium'" font-size="12.9518">Fuerte y </tspan><tspan x="0" y="25.903" fill="#FFFFFF" font-family="'Avenir-Medium'" font-size="12.9518">caliente</tspan><tspan x="45.577" y="25.903" fill="#FFFFFF" font-family="'Avenir-Light'" font-size="12.9518">, </tspan><tspan x="52.312" y="25.903" fill="#FFFFFF" font-family="'Avenir-Medium'" font-size="12.9518">Espíritu salvaje</tspan><tspan x="139.581" y="25.903" fill="#FFFFFF" font-family="'Avenir-Light'" font-size="12.9518"> y </tspan><tspan x="152.312" y="25.903" fill="#FFFFFF" font-family="'Avenir-Medium'" font-size="12.9518">Magma elemental</tspan><tspan x="257.609" y="25.903" fill="#FFFFFF" font-family="'Avenir-Light'" font-size="12.9518"> </tspan><tspan x="0" y="38.855" fill="#FFFFFF" font-family="'Avenir-Light'" font-size="12.9518">que la consagraron en la escena local, cuatro </tspan><tspan x="0" y="51.807" fill="#FFFFFF" font-family="'Avenir-Light'" font-size="12.9518">giras europeas y la consagración como banda </tspan><tspan x="0" y="64.759" fill="#FFFFFF" font-family="'Avenir-Light'" font-size="12.9518">revelación en el festival Fuji Rock de Japón.</tspan><tspan x="0" y="90.662" fill="#FFFFFF" font-family="'Avenir-Light'" font-size="12.9518">La banda se presentó ante más de 10 mil </tspan><tspan x="0" y="103.614" fill="#FFFFFF" font-family="'Avenir-Light'" font-size="12.9518">personas y fue destacada por Billboard por su </tspan><tspan x="0" y="116.566" fill="#FFFFFF" font-family="'Avenir-Light'" font-size="12.9518">energía en el escenario y la aceptación del </tspan><tspan x="0" y="129.518" fill="#FFFFFF" font-family="'Avenir-Light'" font-size="12.9518">público.</tspan></text>
</g>
<line fill="none" stroke="#F58A63" stroke-width="5" stroke-miterlimit="10" x1="14" y1="211.5" x2="75" y2="211.5"/>
<line fill="none" stroke="#939393" stroke-width="0.5756" stroke-miterlimit="10" x1="77.047" y1="213.481" x2="136.915" y2="213.481"/>
<polygon fill="none" stroke="#FFFFFF" stroke-width="1.1513" stroke-miterlimit="10" points="284.726,118.65 281.932,124.331 
	275.979,125.164 280.352,129.399 279.362,135.373 284.726,132.451 290.103,135.373 289.045,129.315 293.393,125.164 
	287.289,124.331 "/>
</svg>
