<?xml version="1.0" encoding="utf-8"?>
<!-- Generator: Adobe Illustrator 16.0.0, SVG Export Plug-In . SVG Version: 6.00 Build 0)  -->
<!DOCTYPE svg PUBLIC "-//W3C//DTD SVG 1.1//EN" "http://www.w3.org/Graphics/SVG/1.1/DTD/svg11.dtd">
<svg version="1.1" id="Layer_1" xmlns="http://www.w3.org/2000/svg" xmlns:xlink="http://www.w3.org/1999/xlink" x="0px" y="0px"
	 width="72px" height="72px" viewBox="-86.25 0 72 72" enable-background="new -86.25 0 72 72" xml:space="preserve">
<rect x="-343.06" y="908.999" fill="#F5C31C" width="558.333" height="34"/>
<circle fill="#F5C31C" cx="124.479" cy="806.603" r="21.603"/>
<circle fill="#F5C31C" cx="70.23" cy="806.603" r="21.603"/>
<circle fill="#F5C31C" cx="15.982" cy="806.603" r="21.603"/>
<rect x="-125.339" y="916.07" fill="none" width="530.557" height="46.479"/>
<text transform="matrix(1 0 0 1 -125.3398 936.1318)" font-family="'Lato-Bold'" font-size="27">BRENDA YAEL RYCHTER</text>
<rect x="312.495" y="502.721" fill="none" width="359.723" height="347.224"/>
<text transform="matrix(1 0 0 1 312.4951 519.7607)" font-family="'MyriadPro-Regular'" font-size="24">Ocupación actual</text>
<text transform="matrix(1 0 0 1 312.4951 548.5605)" font-family="'MyriadPro-Regular'" font-size="24">ultimos trabajos</text>
<text transform="matrix(1 0 0 1 312.4951 577.3604)" font-family="'MyriadPro-Regular'" font-size="24">ultimos estudios</text>
<text transform="matrix(1 0 0 1 312.4951 606.1602)" font-family="'MyriadPro-Regular'" font-size="24">clientes actuales</text>
<text transform="matrix(1 0 0 1 312.4951 634.9609)" font-family="'MyriadPro-Regular'" font-size="24">clientes anteriores</text>
<text transform="matrix(1 0 0 1 312.4951 721.3604)" font-family="'MyriadPro-Regular'" font-size="24">datos de contacto y personales al </text>
<text transform="matrix(1 0 0 1 312.4951 750.1602)" font-family="'MyriadPro-Regular'" font-size="24">final</text>
<g>
	<g>
		<defs>
			<circle id="SVGID_1_" cx="-214.969" cy="895.642" r="68.587"/>
		</defs>
		<clipPath id="SVGID_2_">
			<use xlink:href="#SVGID_1_"  overflow="visible"/>
		</clipPath>
		<g clip-path="url(#SVGID_2_)">
			
				<image overflow="visible" enable-background="new    " width="361" height="403" xlink:href="../../../../../../Users/brenrychter/Desktop/Senior/1.jpg"  transform="matrix(0.38 0 0 0.38 -283.5527 821.1484)">
			</image>
		</g>
	</g>
</g>
<rect x="-331.565" y="746.445" fill="none" width="253.862" height="42.197"/>
<text transform="matrix(1 0 0 1 -331.5645 760.8857)" font-family="'OpenSans'" font-size="13.3">ciudad</text>
<text transform="matrix(1 0 0 1 -281.9766 760.8848)" font-family="'OpenSans'" font-size="19"> </text>
<text transform="matrix(1 0 0 1 -277.04 760.8857)" font-family="'OpenSans'" font-size="13.3">autónoma</text>
<text transform="matrix(1 0 0 1 -200.416 760.8848)" font-family="'OpenSans'" font-size="19"> </text>
<text transform="matrix(1 0 0 1 -195.4805 760.8857)" font-family="'OpenSans'" font-size="13.3">de</text>
<text transform="matrix(1 0 0 1 -178.3887 760.8848)" font-family="'OpenSans'" font-size="19"> </text>
<text transform="matrix(1 0 0 1 -173.4521 760.8857)" font-family="'OpenSans'" font-size="13.3">buenos</text>
<text transform="matrix(1 0 0 1 -120.0703 760.8848)" font-family="'OpenSans'" font-size="19"> </text>
<text transform="matrix(1 0 0 1 -115.1348 760.8857)" font-family="'OpenSans'" font-size="13.3">aires</text>
<g>
	<rect x="-245.851" y="771.373" fill="none" width="69.868" height="22.626"/>
	<text transform="matrix(1 0 0 1 -245.8506 785.8125)" font-family="'OpenSans'" font-size="19">23 </text>
	<text transform="matrix(1 0 0 1 -219.1865 785.8135)" font-family="'OpenSans'" font-size="13.3">años</text>
	<text transform="matrix(1 0 0 1 -183.0859 785.8125)" font-family="'OpenSans'" font-size="19"> </text>
</g>
<rect x="-25.558" y="872.241" fill="none" width="216.257" height="20.596"/>
<text transform="matrix(1 0 0 1 -25.5566 887.4424)" font-family="'OpenSans'" font-size="14">brendarychter</text>
<text transform="matrix(1 0 0 1 89.416 887.4414)" font-family="'OpenSans'" font-size="20">@</text>
<text transform="matrix(1 0 0 1 107.3955 887.4424)" font-family="'OpenSans'" font-size="14">gmail</text>
<text transform="matrix(1 0 0 1 150.2559 887.4414)" font-family="'OpenSans'" font-size="20">.</text>
<text transform="matrix(1 0 0 1 155.5791 887.4424)" font-family="'OpenSans'" font-size="14">com</text>
<rect x="2.74" y="835.864" fill="none" width="160.878" height="24.237"/>
<text transform="matrix(1 0 0 1 2.7402 852.7686)" font-family="'Avenir-Roman'" font-size="22.3603">/</text>
<text transform="matrix(1 0 0 1 11.0146 852.7695)" font-family="'Avenir-Roman'" font-size="15.6522">brendarychter</text>
<g>
	<rect x="-271.713" y="799.327" fill="none" width="114.931" height="20.597"/>
	<text transform="matrix(1 0 0 1 -271.7129 813.0068)" font-family="'OpenSans'" font-size="18">156-522-0958 </text>
</g>
<g>
	<rect x="-338.755" y="225.273" fill="none" width="254.983" height="20"/>
	<text transform="matrix(1 0 0 1 -338.7544 242.0498)" font-family="'NexaBold'" font-size="16.8">experiencia</text>
	<text transform="matrix(1 0 0 1 -210.0352 242.0488)" font-family="'NexaBold'" font-size="24" letter-spacing="1"> </text>
	<text transform="matrix(1 0 0 1 -202.7861 242.0498)" font-family="'NexaBold'" font-size="16.8">laboral</text>
</g>
<text transform="matrix(1 0 0 1 -338.8779 294.6064)" font-family="'OpenSans-Light'" font-size="15">Front End Developer en despegar.com</text>
<text transform="matrix(1 0 0 1 -337.7549 319.2734)" font-family="'OpenSans-Light'" font-size="15">Equipo de Personalización</text>
<text transform="matrix(1 0 0 1 -61.2822 294.6064)" font-family="'OpenSans-Light'" font-size="15">Licenciatura en Tecnología Multimedial</text>
<text transform="matrix(1 0 0 1 -61.2822 319.2734)" font-family="'OpenSans-Light'" font-size="15">Universidad Maimónides</text>
<text transform="matrix(1 0 0 1 -338.6797 268.0186)" fill="#4A494A" font-family="'Avenir-Medium'" font-size="16">2013 - </text>
<text transform="matrix(1 0 0 1 -289.1426 268.0195)" fill="#4A494A" font-family="'Avenir-Medium'" font-size="11.2">actualidad</text>
<g>
	<text transform="matrix(1 0 0 1 -62.0186 267.6846)" fill="#4A494A" font-family="'Avenir-Medium'" font-size="16">2013 - </text>
	<text transform="matrix(1 0 0 1 -12.4819 267.6846)" fill="#4A494A" font-family="'Avenir-Medium'" font-size="11.2">actualidad</text>
</g>
<rect x="-946.339" y="925.07" fill="none" width="426.52" height="46.479"/>
<text transform="matrix(1 0 0 1 -946.3398 949.5352)" font-family="'NexaBold'" font-size="35">BRENDA YAEL RYCHTER</text>
<g>
	<g>
		<defs>
			<circle id="SVGID_3_" cx="-751.894" cy="829.943" r="68.09"/>
		</defs>
		<clipPath id="SVGID_4_">
			<use xlink:href="#SVGID_3_"  overflow="visible"/>
		</clipPath>
		<g clip-path="url(#SVGID_4_)">
			
				<image overflow="visible" enable-background="new    " width="361" height="403" xlink:href="../../../../../../Users/brenrychter/Desktop/Senior/1.jpg"  transform="matrix(0.3772 0 0 0.3772 -819.9829 755.9863)">
			</image>
		</g>
	</g>
</g>
<rect x="-1020.782" y="765.999" fill="none" width="190.521" height="20"/>
<text transform="matrix(1 0 0 1 -1020.7822 775.1426)" font-family="'Roboto-Regular'" font-size="12">Ciudad Autónoma de Buenos Aires</text>
<rect x="-1020.782" y="798.999" fill="none" width="190.521" height="20"/>
<text transform="matrix(1 0 0 1 -1020.7822 808.1426)" font-family="'Roboto-Regular'" font-size="12">22 años - 19 de Octubre de 1993</text>
<rect x="-1020.782" y="830.999" fill="none" width="190.521" height="20"/>
<text transform="matrix(1 0 0 1 -1020.7822 840.1426)" font-family="'Roboto-Regular'" font-size="12">brendarychter@gmail.com</text>
<rect x="-1020.782" y="863.999" fill="none" width="190.521" height="20"/>
<text transform="matrix(1 0 0 1 -1020.7822 873.1426)" font-family="'Roboto-Regular'" font-size="12">156-522-0958 - 4503-3262</text>
<rect x="-868.283" y="178.02" fill="none" width="125.854" height="20"/>
<text transform="matrix(1 0 0 1 -868.2832 188.6865)" font-family="'Roboto-Regular'" font-size="14">work experience</text>
<rect x="-743.283" y="178.02" fill="none" width="125.854" height="20"/>
<text transform="matrix(1 0 0 1 -743.2832 188.6865)" font-family="'Roboto-Regular'" font-size="14">education</text>
<text transform="matrix(1 0 0 1 -998.6797 239.6074)" font-family="'Roboto-Light'" font-size="14">Front End Developer at despegar.com</text>
<text transform="matrix(1 0 0 1 -897.6797 259.6074)" font-family="'Roboto-Light'" font-size="14">Personalization team</text>
<text transform="matrix(1 0 0 1 -739.6797 239.6074)" font-family="'Roboto-Light'" font-size="14">Licenciatura en Tecnología Multimedial</text>
<text transform="matrix(1 0 0 1 -739.6797 259.6074)" font-family="'Roboto-Light'" font-size="14">Maimónides University</text>
<text transform="matrix(1 0 0 1 -852.3467 206.2734)" font-family="'Roboto-Light'" font-size="14">2013 - current</text>
<text transform="matrix(1 0 0 1 -742.3467 206.2734)" font-family="'Roboto-Light'" font-size="14">2013 - 2016</text>
<rect x="-767.607" y="371.02" fill="none" width="125.854" height="20"/>
<text transform="matrix(1 0 0 1 -767.6074 381.6875)" font-family="'Roboto-Regular'" font-size="14">skills</text>
<rect x="-924.115" y="572.511" fill="none" width="125.854" height="20"/>
<text transform="matrix(1 0 0 1 -924.1152 583.1787)" font-family="'Roboto-Regular'" font-size="14">languages</text>
<rect x="-641.115" y="572.511" fill="none" width="125.854" height="20"/>
<text transform="matrix(1 0 0 1 -641.1152 583.1787)" font-family="'Roboto-Regular'" font-size="14">about me</text>
<rect x="-954.11" y="657.332" fill="none" width="125.854" height="20"/>
<text transform="matrix(1 0 0 1 -954.1104 668.001)" font-family="'Roboto-Regular'" font-size="14">previous education</text>
<g>
	<rect x="-333.562" y="574.019" fill="none" width="255.855" height="20"/>
	<text transform="matrix(1 0 0 1 -333.5625 586.1143)" fill="#4A494A" font-family="'Avenir-Medium'" font-size="16">2012 - </text>
	<text transform="matrix(1 0 0 1 -284.0264 586.1143)" fill="#231F20" font-family="'Avenir-Light'" font-size="15">CBC Diseño Gráfico en UBA</text>
</g>
<g>
	<rect x="-166.843" y="683.832" fill="none" width="55.854" height="20"/>
	<text transform="matrix(1 0 0 1 -166.8428 695.9287)" fill="#4A494A" font-family="'Avenir-Medium'" font-size="11.2">español</text>
</g>
<g>
	<rect x="-166.562" y="702.832" fill="none" width="55.854" height="20"/>
	<text transform="matrix(1 0 0 1 -166.5615 713.4717)" font-family="'OpenSans'" font-size="14">nativo</text>
</g>
<g>
	<rect x="-87.809" y="683.832" fill="none" width="55.854" height="20"/>
	<text transform="matrix(1 0 0 1 -87.8076 695.9287)" fill="#4A494A" font-family="'Avenir-Medium'" font-size="11.2">inglés</text>
</g>
<g>
	<rect x="-87.832" y="702.832" fill="none" width="55.854" height="20"/>
	<text transform="matrix(1 0 0 1 -87.832 713.4717)" font-family="'OpenSans'" font-size="14">básico</text>
</g>
<g>
	<rect x="-18.071" y="683.832" fill="none" width="55.854" height="20"/>
	<text transform="matrix(1 0 0 1 -18.0708 695.9287)" fill="#4A494A" font-family="'Avenir-Medium'" font-size="11.2">francés</text>
</g>
<g>
	<rect x="-18.095" y="702.832" fill="none" width="61.854" height="20"/>
	<text transform="matrix(1 0 0 1 -18.0947 713.4717)" font-family="'OpenSans'" font-size="14">en curso</text>
</g>
<g>
	<rect x="-333.562" y="597.019" fill="none" width="533.451" height="18.667"/>
	<text transform="matrix(1 0 0 1 -333.5625 609.1143)" fill="#4A494A" font-family="'Avenir-Medium'" font-size="16">2011 - </text>
	<text transform="matrix(1 0 0 1 -284.0264 609.1143)" fill="#231F20" font-family="'OpenSans-Light'" font-size="15">Bachiller Técnico con Orientación en Informática y Medios de </text>
</g>
<rect x="-336.538" y="408.747" fill="none" width="112.755" height="116.505"/>
<text transform="matrix(1 0 0 1 -336.5371 419.3867)" font-family="'OpenSans-Light'" font-size="14">HTML5 </text>
<text transform="matrix(1 0 0 1 -336.5371 442.3867)" font-family="'OpenSans-Light'" font-size="14">CSS3 </text>
<text transform="matrix(1 0 0 1 -336.5371 465.3867)" font-family="'OpenSans-Light'" font-size="14">Javascript</text>
<text transform="matrix(1 0 0 1 -336.5371 488.3867)" font-family="'OpenSans-Light'" font-size="14">Jquery</text>
<text transform="matrix(1 0 0 1 -336.5371 511.3867)" font-family="'OpenSans-Light'" font-size="14">jquery mobile</text>
<g>
	<rect x="78.243" y="408.747" fill="none" width="124.521" height="60.801"/>
	<text transform="matrix(1 0 0 1 78.2432 419.3867)" font-family="'OpenSans-Light'" font-size="14">WINDOWS</text>
	<text transform="matrix(1 0 0 1 78.2432 442.3867)" font-family="'OpenSans-Light'" font-size="14">LINUX</text>
	<text transform="matrix(1 0 0 1 78.2432 465.3867)" font-family="'OpenSans-Light'" font-size="14">MAC OS</text>
</g>
<circle fill="#EFD124" cx="404.784" cy="275.604" r="59.997"/>
<g>
	<rect x="-338.06" y="354.02" fill="none" width="187.108" height="20"/>
	<text transform="matrix(1 0 0 1 -338.0586 370.7949)" font-family="'NexaBold'" font-size="16.8">conocimientos</text>
</g>
<g>
	<rect x="-106.894" y="655.999" fill="none" width="87.156" height="20"/>
	<text transform="matrix(1 0 0 1 -106.8926 672.7754)" font-family="'NexaBold'" font-size="16.8">idiomas</text>
</g>
<g>
	<rect x="-181.33" y="540.425" fill="none" width="260.096" height="20"/>
	<text transform="matrix(1 0 0 1 -181.3291 557.2012)" font-family="'NexaBold'" font-size="16.8">educación</text>
	<text transform="matrix(1 0 0 1 -67.208 557.2002)" font-family="'NexaBold'" font-size="24" letter-spacing="1"> </text>
	<text transform="matrix(1 0 0 1 -59.959 557.2012)" font-family="'NexaBold'" font-size="16.8">anterior</text>
</g>
<g>
	<g>
		
			<line fill="none" stroke="#000000" stroke-width="2" stroke-miterlimit="10" x1="-655.663" y1="381.02" x2="-653.163" y2="381.02"/>
		
			<line fill="none" stroke="#000000" stroke-width="2" stroke-miterlimit="10" stroke-dasharray="0.0102,0" x1="-648.092" y1="381.02" x2="-648.082" y2="381.02"/>
		
			<line fill="none" stroke="#000000" stroke-width="2" stroke-miterlimit="10" stroke-dasharray="5.081,5.0709,0.0102,0" x1="-648.082" y1="381.02" x2="-455.002" y2="381.02"/>
		
			<line fill="none" stroke="#000000" stroke-width="2" stroke-miterlimit="10" x1="-455.002" y1="381.02" x2="-452.502" y2="381.02"/>
	</g>
</g>
<g>
	<circle cx="-592.666" cy="457.176" r="14.478"/>
	<g>
		<g>
			<rect x="-592.666" y="442.698" fill="none" width="28.956" height="28.956"/>
			<circle cx="-578.188" cy="457.175" r="14.478"/>
		</g>
	</g>
</g>
<g>
	<rect x="-62.425" y="225.273" fill="none" width="315.337" height="20"/>
	<text transform="matrix(1 0 0 1 -62.4238 242.0498)" font-family="'NexaBold'" font-size="16.8">educación</text>
	<text transform="matrix(1 0 0 1 51.6963 242.0488)" font-family="'NexaBold'" font-size="24" letter-spacing="1"> </text>
	<text transform="matrix(1 0 0 1 58.9453 242.0498)" font-family="'NexaBold'" font-size="16.8">universitaria</text>
</g>
<path fill="none" stroke="#000000" stroke-width="1.7485" stroke-miterlimit="10" d="M12.705,821.694v-14.97H8.786v-5.144h3.919
	c0,0-0.995-6.685,2.093-9.04c0,0,1.152-0.785,2.331-0.785h5.731v5.079h-2.407c0,0-2.095-0.099-2.147,0.972v3.774h4.555l-0.575,5.144
	h-3.979v14.97H12.705z"/>
<g>
	<text transform="matrix(1 0 0 1 -58.4639 419.1982)" font-family="'OpenSans-Light'" font-size="14">illustrator</text>
	<text transform="matrix(1 0 0 1 -58.4639 442.1982)" font-family="'OpenSans-Light'" font-size="14">photoshop</text>
	<text transform="matrix(1 0 0 1 -58.4639 465.1982)" font-family="'OpenSans-Light'" font-size="14">PREMIERE</text>
</g>
<g>
	
		<rect x="112.089" y="800.009" fill="none" stroke="#000000" stroke-width="1.7485" stroke-miterlimit="10" width="5.722" height="17.404"/>
	<path fill="none" stroke="#000000" stroke-width="1.7485" stroke-miterlimit="10" d="M136.738,800.755c0,0-4.807-3.307-8.885,1.669
		v-2.415h-5.805v2.842v4.334v10.229h5.805v-9.959c0,0,0.021-0.615,0.09-0.838c0.236-0.75,1.013-2.4,3.316-2.459
		c0,0,2.275,0.105,2.586,2.825l0,0v10.431h5.783v-9.338C139.63,808.075,140.07,803.154,136.738,800.755z"/>
	
		<ellipse fill="none" stroke="#000000" stroke-width="1.7485" stroke-miterlimit="10" cx="115.034" cy="794.7" rx="3.196" ry="2.943"/>
</g>
<path fill="none" stroke="#000000" stroke-width="1.7485" stroke-miterlimit="10" d="M57.572,802.212v4.583v4.218
	c0,0,0.019,2.904,0.511,4.495c0.429,1.389,1.218,2.921,2.67,3.785c0.66,0.393,1.458,0.648,2.42,0.688h2.202h10.104
	c0,0,2.877-0.199,4.229-0.899c1.777-0.922,3.859-2.715,3.973-6.067v-12.703c0,0,0-6.401-6.4-6.701H64.975c0,0-3,0.138-3.685,0.527
	c-1.076,0.619-2.608,1.873-3.342,4.233C57.771,798.947,57.572,802.212,57.572,802.212z"/>
<circle fill="none" stroke="#000000" stroke-width="1.7485" stroke-miterlimit="10" cx="70.525" cy="806.626" r="6.488"/>
<circle cx="77.214" cy="787.753" r="1.526"/>
<line fill="none" stroke="#000000" stroke-width="0.1" stroke-miterlimit="10" x1="69.169" y1="808.524" x2="66.169" y2="808.524"/>
<rect x="-54.374" y="745.595" fill="none" width="283.983" height="20.597"/>
<text transform="matrix(1 0 0 1 -54.373 763.0752)" font-family="'OpenSans-Semibold'" font-size="16.1">www</text>
<text transform="matrix(1 0 0 1 -8.6924 763.0742)" font-family="'OpenSans-Semibold'" font-size="23">.</text>
<text transform="matrix(1 0 0 1 -2.3672 763.0752)" font-family="'OpenSans-Semibold'" font-size="16.1">brendarychter</text>
<text transform="matrix(1 0 0 1 133.1045 763.0742)" font-family="'OpenSans-Semibold'" font-size="23">.</text>
<text transform="matrix(1 0 0 1 139.4297 763.0752)" font-family="'OpenSans-Semibold'" font-size="16.1">com</text>
<text transform="matrix(1 0 0 1 177.1631 763.0742)" font-family="'OpenSans-Semibold'" font-size="23">.</text>
<text transform="matrix(1 0 0 1 183.4863 763.0752)" font-family="'OpenSans-Semibold'" font-size="16.1">ar</text>
<image overflow="visible" enable-background="new    " width="564" height="766" xlink:href="../../../../../../Users/brenrychter/Desktop/Senior/07a656fa094e5cdd846d9f37234d94c1.jpg"  transform="matrix(1 0 0 1 -1003.7822 -166.9814)">
</image>
<line fill="none" stroke="#59595A" stroke-width="0.5" stroke-miterlimit="10" x1="-343.06" y1="340.999" x2="215.273" y2="340.999"/>
<line fill="none" stroke="#59595A" stroke-width="0.5" stroke-miterlimit="10" x1="-343.06" y1="731.332" x2="215.273" y2="731.332"/>
<line fill="none" stroke="#59595A" stroke-width="0.5" stroke-miterlimit="10" x1="-342.06" y1="176.02" x2="209.889" y2="176.02"/>
<rect x="152.939" y="143.999" fill="#F5C31C" width="62.963" height="62.274"/>
<circle fill="#0D0D0D" cx="184.421" cy="175.136" r="14.863"/>
<line fill="none" stroke="#59595A" stroke-width="0.5" stroke-miterlimit="10" x1="-344.06" y1="527.251" x2="214.273" y2="527.251"/>
<line fill="none" stroke="#59595A" stroke-width="0.5" stroke-miterlimit="10" x1="-343.06" y1="644.999" x2="215.273" y2="644.999"/>
<g>
	<g>
		<path fill="#FFFFFF" d="M179.014,175.034c-1.033-0.329-1.802-0.872-2.311-1.627c-0.508-0.755-0.762-1.685-0.762-2.783
			c0-1.511,0.426-2.644,1.274-3.396c0.851-0.75,2.166-1.127,3.944-1.127h3.414v9.184l-0.999,0.074h-2.063h-0.181l-0.653-0.043
			l-0.99-0.125L179.014,175.034z M183.576,167.134h-2.375c-1.479,0-2.545,0.285-3.198,0.853c-0.653,0.568-0.979,1.478-0.979,2.727
			c0,1.205,0.334,2.115,1,2.732s1.742,1.021,2.951,1.021l2.623,0.02L183.576,167.134z"/>
	</g>
	<g>
		<path fill="#FFFFFF" d="M183.395,174.753l-6.863,8.448l1.57,0.035l6.521-8.116C184.622,175.121,184.787,174.381,183.395,174.753z"
			/>
	</g>
	<g>
		<path fill="#FFFFFF" d="M188.367,175.191l-0.991,0.125l-0.653,0.043h-0.181h-2.063l-0.998-0.074v-9.184h3.412
			c1.779,0,3.094,0.377,3.945,1.127c0.85,0.752,1.273,1.885,1.273,3.396c0,1.099-0.254,2.026-0.76,2.783
			c-0.511,0.755-1.277,1.298-2.312,1.627L188.367,175.191z M184.456,174.488l2.625-0.021c1.209,0,2.284-0.405,2.95-1.021
			c0.666-0.618,1-1.528,1-2.733c0-1.25-0.326-2.157-0.979-2.726s-1.721-0.854-3.198-0.854h-2.375L184.456,174.488z"/>
	</g>
	<g>
		<path fill="#FFFFFF" d="M183.426,174.521h3.746c1.952,0,3.395,0.412,4.329,1.237c0.933,0.825,1.397,2.067,1.397,3.726
			c0,1.207-0.278,2.225-0.834,3.054c-0.328,0.487-1.344,1.545-1.617,1.632L183.426,174.521z M190.616,182.582
			c0.731-0.678,1.098-1.678,1.098-2.999c0-1.371-0.358-2.368-1.075-2.992c-0.718-0.624-1.888-0.937-3.511-0.937h-2.604
			C184.521,175.654,189.885,183.259,190.616,182.582z"/>
	</g>
	<g>
		<path fill="#FFFFFF" d="M183.432,175.121l6.338,8.117l1.524-0.036l-6.67-8.448C183.271,174.381,183.432,175.121,183.432,175.121z"
			/>
	</g>
</g>
<g>
	<path fill="#FFFFFF" d="M314.729,201.744c-0.72-0.258-1.255-0.684-1.608-1.273c-0.354-0.593-0.529-1.318-0.529-2.181
		c0-1.185,0.296-2.069,0.888-2.659c0.594-0.589,1.51-0.883,2.748-0.883h2.379v7.193l-0.696,0.058h-1.438h-0.126l-0.455-0.032
		l-0.689-0.099L314.729,201.744z M317.908,195.557h-1.654c-1.03,0-1.771,0.224-2.229,0.668c-0.455,0.445-0.684,1.157-0.684,2.137
		c0,0.943,0.232,1.656,0.697,2.14c0.464,0.483,1.213,0.8,2.056,0.8l1.828,0.016L317.908,195.557z"/>
</g>
<g>
	<path fill="#FFFFFF" d="M317.776,201.744l-4.604,5.854l1.054,0.025l4.375-5.624C318.601,201.999,318.711,201.486,317.776,201.744z"
		/>
</g>
<g>
	<path fill="#FFFFFF" d="M318.996,201.868l-0.69,0.099l-0.455,0.032h-0.126h-1.438l-0.696-0.058v-7.193h2.378
		c1.239,0,2.155,0.294,2.748,0.883c0.592,0.59,0.889,1.475,0.889,2.659c0,0.86-0.178,1.588-0.529,2.18
		c-0.354,0.593-0.891,1.017-1.609,1.274L318.996,201.868z M316.271,201.316l1.827-0.017c0.844,0,1.593-0.317,2.057-0.8
		c0.465-0.482,0.696-1.197,0.696-2.141c0-0.979-0.228-1.689-0.683-2.135c-0.456-0.445-1.198-0.668-2.229-0.668h-1.654
		L316.271,201.316z"/>
</g>
<g>
	<path fill="#FFFFFF" d="M315.595,201.999l4.375,5.624l1.055-0.025l-4.604-5.854C315.484,201.486,315.595,201.999,315.595,201.999z"
		/>
</g>
<g>
	<text transform="matrix(1 0 0 1 -338.4639 397.0195)" fill="#4A494A" font-family="'Avenir-Medium'" font-size="11.2">desarrollo</text>
	<text transform="matrix(1 0 0 1 -265.2617 397.0186)" fill="#4A494A" font-family="'Avenir-Medium'" font-size="16"> </text>
	<text transform="matrix(1 0 0 1 -260.8135 397.0195)" fill="#4A494A" font-family="'Avenir-Medium'" font-size="11.2">web</text>
</g>
<g>
	<text transform="matrix(1 0 0 1 -58.4629 397.0195)" fill="#4A494A" font-family="'Avenir-Medium'" font-size="11.2">diseño</text>
</g>
<g>
	<text transform="matrix(1 0 0 1 78.2441 397.0195)" fill="#4A494A" font-family="'Avenir-Medium'" font-size="11.2">sistemas</text>
	<text transform="matrix(1 0 0 1 131.3428 397.0186)" fill="#4A494A" font-family="'Avenir-Medium'" font-size="16"> </text>
	<text transform="matrix(1 0 0 1 135.791 397.0195)" fill="#4A494A" font-family="'Avenir-Medium'" font-size="11.2">operativos</text>
</g>
<text transform="matrix(1 0 0 1 -186.6348 419.1982)" font-family="'OpenSans-Light'" font-size="14">node js</text>
<text transform="matrix(1 0 0 1 -186.6348 442.1982)" font-family="'OpenSans-Light'" font-size="14">EXPRESS</text>
<text transform="matrix(1 0 0 1 -186.6348 465.1982)" font-family="'OpenSans-Light'" font-size="14">angular</text>
<text transform="matrix(1 0 0 1 -186.6348 488.1982)" font-family="'OpenSans-Light'" font-size="14">PHP</text>
<text transform="matrix(1 0 0 1 -186.6348 511.1982)" font-family="'OpenSans-Light'" font-size="14">MYSQL</text>
<text transform="matrix(1 0 0 1 -284.5625 627.7236)" fill="#231F20" font-family="'OpenSans-Light'" font-size="15">Comunicación Digitales en Escuelas Técnicas ORT</text>
<circle fill="#0D0D0D" cx="36" cy="36" r="26.862"/>
<g>
	<g>
		<path fill="#FFFFFF" d="M26.227,35.814c-1.87-0.595-3.258-1.577-4.177-2.939c-0.916-1.365-1.375-3.043-1.375-5.03
			c0-2.729,0.769-4.777,2.304-6.135c1.537-1.357,3.914-2.037,7.129-2.037h6.171V36.27l-1.807,0.135h-3.73h-0.325l-1.182-0.076
			L27.443,36.1L26.227,35.814z M34.472,21.538H30.18c-2.673,0-4.6,0.515-5.78,1.542c-1.183,1.027-1.772,2.668-1.772,4.927
			c0,2.178,0.604,3.823,1.808,4.939c1.204,1.114,3.148,1.846,5.334,1.846l4.742,0.036L34.472,21.538z"/>
	</g>
	<g>
		<path fill="#FFFFFF" d="M34.142,35.307L21.737,50.576l2.84,0.064l11.785-14.668C36.362,35.973,36.66,34.635,34.142,35.307z"/>
	</g>
	<g>
		<path fill="#FFFFFF" d="M43.131,36.1l-1.791,0.229l-1.181,0.076h-0.327h-3.731l-1.803-0.135V19.672h6.167
			c3.217,0,5.594,0.68,7.133,2.037c1.532,1.358,2.301,3.405,2.301,6.135c0,1.986-0.459,3.665-1.373,5.03
			c-0.922,1.364-2.309,2.346-4.176,2.94L43.131,36.1z M36.062,34.828l4.745-0.036c2.185,0,4.129-0.732,5.332-1.846
			c1.202-1.117,1.807-2.762,1.807-4.939c0-2.258-0.59-3.9-1.771-4.927c-1.183-1.027-3.11-1.542-5.78-1.542H36.1L36.062,34.828z"/>
	</g>
	<g>
		<path fill="#FFFFFF" d="M34.201,34.891h6.77c3.528,0,6.137,0.745,7.824,2.236c1.686,1.49,2.527,3.736,2.527,6.732
			c0,2.181-0.506,4.021-1.508,5.52c-0.592,0.881-2.431,2.793-2.922,2.951L34.201,34.891z M47.195,49.457
			c1.324-1.225,1.984-3.031,1.984-5.42c0-2.479-0.648-4.279-1.943-5.408c-1.297-1.128-3.412-1.691-6.346-1.691h-4.708
			C36.183,36.938,45.874,50.682,47.195,49.457z"/>
	</g>
	<g>
		<path fill="#FFFFFF" d="M34.211,35.973l11.453,14.668l2.756,0.377L36,35.249C33.554,34.576,34.211,35.973,34.211,35.973z"/>
	</g>
</g>
<circle fill="#FFFFFF" cx="-50.25" cy="36" r="26.862"/>
<g>
	<g>
		<path fill="#0D0D0D" d="M-60.023,35.814c-1.87-0.595-3.258-1.577-4.177-2.939c-0.916-1.365-1.375-3.043-1.375-5.03
			c0-2.729,0.769-4.777,2.304-6.135c1.537-1.357,3.914-2.037,7.129-2.037h6.171V36.27l-1.807,0.135h-3.73h-0.325l-1.182-0.076
			l-1.792-0.229L-60.023,35.814z M-51.778,21.538h-4.292c-2.673,0-4.6,0.515-5.78,1.542c-1.183,1.027-1.772,2.668-1.772,4.927
			c0,2.178,0.604,3.823,1.808,4.939c1.204,1.114,3.148,1.846,5.334,1.846l4.742,0.036L-51.778,21.538z"/>
	</g>
	<g>
		<path fill="#0D0D0D" d="M-52.108,35.307l-12.405,15.269l2.84,0.064l11.785-14.668C-49.888,35.973-49.59,34.635-52.108,35.307z"/>
	</g>
	<g>
		<path fill="#0D0D0D" d="M-43.119,36.1l-1.791,0.229l-1.181,0.076h-0.327h-3.731l-1.803-0.135V19.672h6.167
			c3.217,0,5.594,0.68,7.133,2.037c1.532,1.358,2.301,3.405,2.301,6.135c0,1.986-0.459,3.665-1.373,5.03
			c-0.922,1.364-2.309,2.346-4.176,2.94L-43.119,36.1z M-50.188,34.828l4.745-0.036c2.185,0,4.129-0.732,5.332-1.846
			c1.202-1.117,1.807-2.762,1.807-4.939c0-2.258-0.59-3.9-1.771-4.927c-1.183-1.027-3.11-1.542-5.78-1.542h-4.294L-50.188,34.828z"
			/>
	</g>
	<g>
		<path fill="#0D0D0D" d="M-52.049,34.891h6.77c3.528,0,6.137,0.745,7.824,2.236c1.686,1.49,2.527,3.736,2.527,6.732
			c0,2.181-0.506,4.021-1.508,5.52c-0.592,0.881-2.431,2.793-2.922,2.951L-52.049,34.891z M-39.055,49.457
			c1.324-1.225,1.984-3.031,1.984-5.42c0-2.479-0.648-4.279-1.943-5.408c-1.297-1.128-3.412-1.691-6.346-1.691h-4.708
			C-50.067,36.938-40.376,50.682-39.055,49.457z"/>
	</g>
	<g>
		<path fill="#0D0D0D" d="M-52.039,35.973l11.453,14.668l2.756,0.377l-12.42-15.769C-52.696,34.576-52.039,35.973-52.039,35.973z"/>
	</g>
</g>
</svg>
