<?xml version="1.0" encoding="utf-8"?>
<!-- Generator: Adobe Illustrator 16.0.0, SVG Export Plug-In . SVG Version: 6.00 Build 0)  -->
<!DOCTYPE svg PUBLIC "-//W3C//DTD SVG 1.1//EN" "http://www.w3.org/Graphics/SVG/1.1/DTD/svg11.dtd">
<svg version="1.1" id="Layer_1" xmlns="http://www.w3.org/2000/svg" xmlns:xlink="http://www.w3.org/1999/xlink" x="0px" y="0px"
	 width="72px" height="72px" viewBox="0 0 72 72" enable-background="new 0 0 72 72" xml:space="preserve">
<rect x="-343.06" y="908.999" fill="#F5C31C" width="558.333" height="34"/>
<circle fill="#F5C31C" cx="124.478" cy="806.603" r="21.603"/>
<circle fill="#F5C31C" cx="70.23" cy="806.603" r="21.603"/>
<circle fill="#F5C31C" cx="15.982" cy="806.603" r="21.603"/>
<rect x="-125.339" y="916.07" fill="none" width="530.557" height="46.48"/>
<text transform="matrix(1 0 0 1 -125.3394 936.1318)" font-family="'Lato-Bold'" font-size="27" letter-spacing="1">BRENDA YAEL RYCHTER</text>
<rect x="312.495" y="502.721" fill="none" width="359.723" height="347.223"/>
<text transform="matrix(1 0 0 1 312.4951 519.7607)"><tspan x="0" y="0" font-family="'MyriadPro-Regular'" font-size="24">Ocupación actual</tspan><tspan x="0" y="28.8" font-family="'MyriadPro-Regular'" font-size="24">ultimos trabajos</tspan><tspan x="0" y="57.6" font-family="'MyriadPro-Regular'" font-size="24">ultimos estudios</tspan><tspan x="0" y="86.399" font-family="'MyriadPro-Regular'" font-size="24">clientes actuales</tspan><tspan x="0" y="115.2" font-family="'MyriadPro-Regular'" font-size="24">clientes anteriores</tspan><tspan x="0" y="201.6" font-family="'MyriadPro-Regular'" font-size="24">datos de contacto y personales al </tspan><tspan x="0" y="230.399" font-family="'MyriadPro-Regular'" font-size="24">final</tspan></text>
<g>
	<defs>
		<circle id="SVGID_1_" cx="-214.969" cy="895.642" r="68.587"/>
	</defs>
	<clipPath id="SVGID_2_">
		<use xlink:href="#SVGID_1_"  overflow="visible"/>
	</clipPath>
	<g clip-path="url(#SVGID_2_)">
		
			<image overflow="visible" width="361" height="403" xlink:href="../../../../../../Users/brenrychter/Desktop/Senior/1.jpg"  transform="matrix(0.38 0 0 0.38 -283.5527 821.1484)">
		</image>
	</g>
</g>
<rect x="-331.565" y="746.445" fill="none" width="253.862" height="42.198"/>
<text transform="matrix(0.7 0 0 0.7 -331.5654 760.8848)" font-family="'OpenSans'" font-size="19">ciudad</text>
<text transform="matrix(1 0 0 1 -281.9761 760.8848)" font-family="'OpenSans'" font-size="19"> </text>
<text transform="matrix(0.7 0 0 0.7 -277.0405 760.8848)" font-family="'OpenSans'" font-size="19">autónoma</text>
<text transform="matrix(1 0 0 1 -200.4165 760.8848)" font-family="'OpenSans'" font-size="19"> </text>
<text transform="matrix(0.7 0 0 0.7 -195.481 760.8848)" font-family="'OpenSans'" font-size="19">de</text>
<text transform="matrix(1 0 0 1 -178.3882 760.8848)" font-family="'OpenSans'" font-size="19"> </text>
<text transform="matrix(0.7 0 0 0.7 -173.4526 760.8848)" font-family="'OpenSans'" font-size="19">buenos</text>
<text transform="matrix(1 0 0 1 -120.0708 760.8848)" font-family="'OpenSans'" font-size="19"> </text>
<text transform="matrix(0.7 0 0 0.7 -115.1353 760.8848)" font-family="'OpenSans'" font-size="19">aires</text>
<g>
	<rect x="-245.851" y="771.373" fill="none" width="69.868" height="22.626"/>
	<text transform="matrix(1 0 0 1 -245.8506 785.8125)" font-family="'OpenSans'" font-size="19">23 </text>
	<text transform="matrix(0.7 0 0 0.7 -219.1875 785.8125)" font-family="'OpenSans'" font-size="19">años</text>
	<text transform="matrix(1 0 0 1 -183.0864 785.8125)" font-family="'OpenSans'" font-size="19"> </text>
</g>
<rect x="-25.558" y="872.241" fill="none" width="216.257" height="20.596"/>
<text transform="matrix(0.7 0 0 0.7 -25.5576 887.4414)" font-family="'OpenSans'" font-size="20">brendarychter</text>
<text transform="matrix(1 0 0 1 89.416 887.4414)" font-family="'OpenSans'" font-size="20">@</text>
<text transform="matrix(0.7 0 0 0.7 107.3945 887.4414)" font-family="'OpenSans'" font-size="20">gmail</text>
<text transform="matrix(1 0 0 1 150.2559 887.4414)" font-family="'OpenSans'" font-size="20">.</text>
<text transform="matrix(0.7 0 0 0.7 155.5781 887.4414)" font-family="'OpenSans'" font-size="20">com</text>
<rect x="2.74" y="835.864" fill="none" width="160.878" height="24.238"/>
<text transform="matrix(1 0 0 1 2.7402 852.7686)" font-family="'Avenir-Roman'" font-size="22.3603">/</text>
<text transform="matrix(0.7 0 0 0.7 11.0137 852.7686)" font-family="'Avenir-Roman'" font-size="22.3603">brendarychter</text>
<g>
	<rect x="-271.713" y="799.327" fill="none" width="114.931" height="20.597"/>
	<text transform="matrix(1 0 0 1 -271.7129 813.0068)" font-family="'OpenSans'" font-size="18">156-522-0958 </text>
</g>
<g>
	<rect x="-338.755" y="225.274" fill="none" width="254.983" height="20"/>
	<text transform="matrix(0.7 0 0 0.7 -338.7549 242.0488)" font-family="'NexaBold'" font-size="24" letter-spacing="1.429">experiencia</text>
	<text transform="matrix(1 0 0 1 -210.0347 242.0488)" font-family="'NexaBold'" font-size="24" letter-spacing="2"> </text>
	<text transform="matrix(0.7 0 0 0.7 -202.7866 242.0488)" font-family="'NexaBold'" font-size="24" letter-spacing="1.429">laboral</text>
</g>
<text transform="matrix(1 0 0 1 -338.8779 294.6069)" font-family="'OpenSans-Light'" font-size="15">Front End Developer en despegar.com</text>
<text transform="matrix(1 0 0 1 -337.7549 319.2739)" font-family="'OpenSans-Light'" font-size="15">Equipo de Personalización</text>
<text transform="matrix(1 0 0 1 -61.2822 294.6069)" font-family="'OpenSans-Light'" font-size="15">Licenciatura en Tecnología Multimedial</text>
<text transform="matrix(1 0 0 1 -61.2822 319.2739)" font-family="'OpenSans-Light'" font-size="15">Universidad Maimónides</text>
<text transform="matrix(1 0 0 1 -338.6797 268.019)" fill="#4A494A" font-family="'Avenir-Medium'" font-size="16">2013 - </text>
<text transform="matrix(0.7 0 0 0.7 -289.1436 268.019)" fill="#4A494A" font-family="'Avenir-Medium'" font-size="16">actualidad</text>
<g>
	<text transform="matrix(1 0 0 1 -62.0186 267.6841)" fill="#4A494A" font-family="'Avenir-Medium'" font-size="16">2013 - </text>
	<text transform="matrix(0.7 0 0 0.7 -12.4824 267.6841)" fill="#4A494A" font-family="'Avenir-Medium'" font-size="16">actualidad</text>
</g>
<rect x="-946.339" y="925.07" fill="none" width="426.52" height="46.48"/>
<text transform="matrix(1 0 0 1 -946.3394 949.5352)" font-family="'NexaBold'" font-size="35">BRENDA YAEL RYCHTER</text>
<g>
	<defs>
		<circle id="SVGID_3_" cx="-751.894" cy="829.943" r="68.09"/>
	</defs>
	<clipPath id="SVGID_4_">
		<use xlink:href="#SVGID_3_"  overflow="visible"/>
	</clipPath>
	<g clip-path="url(#SVGID_4_)">
		
			<image overflow="visible" width="361" height="403" xlink:href="../../../../../../Users/brenrychter/Desktop/Senior/1.jpg"  transform="matrix(0.3772 0 0 0.3772 -819.9834 755.9873)">
		</image>
	</g>
</g>
<rect x="-1020.782" y="765.999" fill="none" width="190.521" height="20"/>
<text transform="matrix(1 0 0 1 -1020.7822 775.1426)" font-family="'Roboto-Regular'" font-size="12">Ciudad Autónoma de Buenos Aires</text>
<rect x="-1020.782" y="798.999" fill="none" width="190.521" height="20"/>
<text transform="matrix(1 0 0 1 -1020.7822 808.1426)" font-family="'Roboto-Regular'" font-size="12">22 años - 19 de Octubre de 1993</text>
<rect x="-1020.782" y="830.999" fill="none" width="190.521" height="20"/>
<text transform="matrix(1 0 0 1 -1020.7822 840.1426)" font-family="'Roboto-Regular'" font-size="12">brendarychter@gmail.com</text>
<rect x="-1020.782" y="863.999" fill="none" width="190.521" height="20"/>
<text transform="matrix(1 0 0 1 -1020.7822 873.1426)" font-family="'Roboto-Regular'" font-size="12">156-522-0958 - 4503-3262</text>
<rect x="-868.283" y="178.019" fill="none" width="125.854" height="20"/>
<text transform="matrix(1 0 0 1 -868.2832 188.6865)" font-family="'Roboto-Regular'" font-size="14">work experience</text>
<rect x="-743.283" y="178.019" fill="none" width="125.854" height="20"/>
<text transform="matrix(1 0 0 1 -743.2832 188.6865)" font-family="'Roboto-Regular'" font-size="14">education</text>
<text transform="matrix(1 0 0 1 -998.6797 239.6074)" font-family="'Roboto-Light'" font-size="14">Front End Developer at despegar.com</text>
<text transform="matrix(1 0 0 1 -897.6797 259.6074)" font-family="'Roboto-Light'" font-size="14">Personalization team</text>
<text transform="matrix(1 0 0 1 -739.6797 239.6074)" font-family="'Roboto-Light'" font-size="14">Licenciatura en Tecnología Multimedial</text>
<text transform="matrix(1 0 0 1 -739.6797 259.6074)" font-family="'Roboto-Light'" font-size="14">Maimónides University</text>
<text transform="matrix(1 0 0 1 -852.3467 206.2739)" font-family="'Roboto-Light'" font-size="14">2013 - current</text>
<text transform="matrix(1 0 0 1 -742.3467 206.2739)" font-family="'Roboto-Light'" font-size="14">2013 - 2016</text>
<rect x="-767.607" y="371.019" fill="none" width="125.854" height="20"/>
<text transform="matrix(1 0 0 1 -767.6074 381.687)" font-family="'Roboto-Regular'" font-size="14">skills</text>
<rect x="-924.115" y="572.511" fill="none" width="125.854" height="20"/>
<text transform="matrix(1 0 0 1 -924.1152 583.1787)" font-family="'Roboto-Regular'" font-size="14">languages</text>
<rect x="-641.115" y="572.511" fill="none" width="125.854" height="20"/>
<text transform="matrix(1 0 0 1 -641.1152 583.1787)" font-family="'Roboto-Regular'" font-size="14">about me</text>
<rect x="-954.11" y="657.332" fill="none" width="125.854" height="20"/>
<text transform="matrix(1 0 0 1 -954.1104 668.001)" font-family="'Roboto-Regular'" font-size="14">previous education</text>
<g>
	<rect x="-333.562" y="574.019" fill="none" width="255.855" height="20"/>
	<text transform="matrix(1 0 0 1 -333.562 586.1143)"><tspan x="0" y="0" fill="#4A494A" font-family="'Avenir-Medium'" font-size="16">2012 - </tspan><tspan x="49.536" y="0" fill="#231F20" font-family="'Avenir-Light'" font-size="15">CBC Diseño Gráfico en UBA</tspan></text>
</g>
<g>
	<rect x="-166.843" y="683.832" fill="none" width="55.854" height="20"/>
	<text transform="matrix(0.7 0 0 0.7 -166.8433 695.9277)" fill="#4A494A" font-family="'Avenir-Medium'" font-size="16">español</text>
</g>
<g>
	<rect x="-166.562" y="702.832" fill="none" width="55.854" height="20"/>
	<text transform="matrix(1 0 0 1 -166.5615 713.4717)" font-family="'OpenSans'" font-size="14">nativo</text>
</g>
<g>
	<rect x="-87.809" y="683.832" fill="none" width="55.854" height="20"/>
	<text transform="matrix(0.7 0 0 0.7 -87.8086 695.9277)" fill="#4A494A" font-family="'Avenir-Medium'" font-size="16">inglés</text>
</g>
<g>
	<rect x="-87.832" y="702.832" fill="none" width="55.854" height="20"/>
	<text transform="matrix(1 0 0 1 -87.832 713.4717)" font-family="'OpenSans'" font-size="14">básico</text>
</g>
<g>
	<rect x="-18.071" y="683.832" fill="none" width="55.854" height="20"/>
	<text transform="matrix(0.7 0 0 0.7 -18.0713 695.9277)" fill="#4A494A" font-family="'Avenir-Medium'" font-size="16">francés</text>
</g>
<g>
	<rect x="-18.095" y="702.832" fill="none" width="61.854" height="20"/>
	<text transform="matrix(1 0 0 1 -18.0947 713.4717)" font-family="'OpenSans'" font-size="14">en curso</text>
</g>
<g>
	<rect x="-333.562" y="597.019" fill="none" width="533.45" height="18.667"/>
	<text transform="matrix(1 0 0 1 -333.562 609.1143)"><tspan x="0" y="0" fill="#4A494A" font-family="'Avenir-Medium'" font-size="16">2011 - </tspan><tspan x="49.536" y="0" fill="#231F20" font-family="'OpenSans-Light'" font-size="15">Bachiller Técnico con Orientación en Informática y Medios de </tspan></text>
</g>
<rect x="-336.538" y="408.747" fill="none" width="112.755" height="116.505"/>
<text transform="matrix(1 0 0 1 -336.5376 419.3867)"><tspan x="0" y="0" font-family="'OpenSans-Light'" font-size="14">HTML5 </tspan><tspan x="0" y="23" font-family="'OpenSans-Light'" font-size="14">CSS3 </tspan><tspan x="0" y="46" font-family="'OpenSans-Light'" font-size="14">Javascript</tspan><tspan x="0" y="69" font-family="'OpenSans-Light'" font-size="14">Jquery</tspan><tspan x="0" y="92" font-family="'OpenSans-Light'" font-size="14">jquery mobile</tspan></text>
<g>
	<rect x="78.243" y="408.747" fill="none" width="124.521" height="60.801"/>
	<text transform="matrix(1 0 0 1 78.2432 419.3867)"><tspan x="0" y="0" font-family="'OpenSans-Light'" font-size="14">WINDOWS</tspan><tspan x="0" y="23" font-family="'OpenSans-Light'" font-size="14">LINUX</tspan><tspan x="0" y="46" font-family="'OpenSans-Light'" font-size="14">MAC OS</tspan></text>
</g>
<circle fill="#EFD124" cx="404.784" cy="275.604" r="59.997"/>
<g>
	<rect x="-338.06" y="354.019" fill="none" width="187.108" height="20"/>
	<text transform="matrix(0.7 0 0 0.7 -338.0596 370.7939)" font-family="'NexaBold'" font-size="24" letter-spacing="1.429">conocimientos</text>
</g>
<g>
	<rect x="-106.894" y="655.999" fill="none" width="87.156" height="20"/>
	<text transform="matrix(0.7 0 0 0.7 -106.8936 672.7744)" font-family="'NexaBold'" font-size="24" letter-spacing="1.429">idiomas</text>
</g>
<g>
	<rect x="-181.33" y="540.425" fill="none" width="260.095" height="20"/>
	<text transform="matrix(0.7 0 0 0.7 -181.3296 557.2002)" font-family="'NexaBold'" font-size="24" letter-spacing="1.429">educación</text>
	<text transform="matrix(1 0 0 1 -67.208 557.2002)" font-family="'NexaBold'" font-size="24" letter-spacing="2"> </text>
	<text transform="matrix(0.7 0 0 0.7 -59.96 557.2002)" font-family="'NexaBold'" font-size="24" letter-spacing="1.429">anterior</text>
</g>
<g>
	<g>
		
			<line fill="none" stroke="#000000" stroke-width="2" stroke-miterlimit="10" x1="-655.663" y1="381.019" x2="-653.163" y2="381.019"/>
		
			<line fill="none" stroke="#000000" stroke-width="2" stroke-miterlimit="10" stroke-dasharray="0.0102,0" x1="-648.092" y1="381.019" x2="-648.082" y2="381.019"/>
		
			<line fill="none" stroke="#000000" stroke-width="2" stroke-miterlimit="10" stroke-dasharray="5.081,5.0709,0.0102,0" x1="-648.082" y1="381.019" x2="-455.002" y2="381.019"/>
		
			<line fill="none" stroke="#000000" stroke-width="2" stroke-miterlimit="10" x1="-455.002" y1="381.019" x2="-452.502" y2="381.019"/>
	</g>
</g>
<g>
	<circle cx="-592.666" cy="457.176" r="14.478"/>
	<g>
		<g>
			<rect x="-592.666" y="442.698" fill="none" width="28.956" height="28.956"/>
			<circle cx="-578.188" cy="457.175" r="14.478"/>
		</g>
	</g>
</g>
<g>
	<rect x="-62.425" y="225.274" fill="none" width="315.337" height="20"/>
	<text transform="matrix(0.7 0 0 0.7 -62.4248 242.0488)" font-family="'NexaBold'" font-size="24" letter-spacing="1.429">educación</text>
	<text transform="matrix(1 0 0 1 51.6963 242.0488)" font-family="'NexaBold'" font-size="24" letter-spacing="2"> </text>
	<text transform="matrix(0.7 0 0 0.7 58.9443 242.0488)" font-family="'NexaBold'" font-size="24" letter-spacing="1.429">universitaria</text>
</g>
<path fill="none" stroke="#000000" stroke-width="1.7485" stroke-miterlimit="10" d="M12.705,821.694v-14.969H8.786v-5.144h3.919
	c0,0-0.995-6.685,2.093-9.04c0,0,1.152-0.785,2.331-0.785h5.731v5.079h-2.407c0,0-2.095-0.099-2.147,0.972v3.774h4.555l-0.575,5.144
	h-3.979v14.969H12.705z"/>
<g>
	<text transform="matrix(1 0 0 1 -58.4639 419.1982)"><tspan x="0" y="0" font-family="'OpenSans-Light'" font-size="14">illustrator</tspan><tspan x="0" y="23" font-family="'OpenSans-Light'" font-size="14">photoshop</tspan><tspan x="0" y="46" font-family="'OpenSans-Light'" font-size="14">PREMIERE</tspan></text>
</g>
<g>
	
		<rect x="112.089" y="800.009" fill="none" stroke="#000000" stroke-width="1.7485" stroke-miterlimit="10" width="5.721" height="17.404"/>
	<path fill="none" stroke="#000000" stroke-width="1.7485" stroke-miterlimit="10" d="M136.738,800.755c0,0-4.806-3.307-8.884,1.669
		v-2.415h-5.805v2.842v4.334v10.229h5.805v-9.959c0,0,0.021-0.615,0.09-0.838c0.236-0.75,1.012-2.4,3.316-2.459
		c0,0,2.275,0.106,2.586,2.825l0,0v10.431h5.783v-9.338C139.63,808.075,140.071,803.154,136.738,800.755z"/>
	
		<ellipse fill="none" stroke="#000000" stroke-width="1.7485" stroke-miterlimit="10" cx="115.034" cy="794.7" rx="3.197" ry="2.943"/>
</g>
<path fill="none" stroke="#000000" stroke-width="1.7485" stroke-miterlimit="10" d="M57.572,802.212v4.583v4.218
	c0,0,0.019,2.904,0.511,4.495c0.428,1.388,1.218,2.921,2.67,3.785c0.66,0.393,1.458,0.648,2.42,0.688h2.202h10.103
	c0,0,2.877-0.2,4.229-0.9c1.777-0.922,3.859-2.715,3.973-6.067v-12.703c0,0,0-6.402-6.401-6.702H64.974c0,0-3,0.138-3.684,0.528
	c-1.076,0.619-2.609,1.873-3.342,4.233C57.771,798.947,57.572,802.212,57.572,802.212z"/>
<circle fill="none" stroke="#000000" stroke-width="1.7485" stroke-miterlimit="10" cx="70.526" cy="806.626" r="6.488"/>
<circle cx="77.214" cy="787.753" r="1.526"/>
<line fill="none" stroke="#000000" stroke-width="0.1" stroke-miterlimit="10" x1="69.169" y1="808.524" x2="66.169" y2="808.524"/>
<rect x="-54.374" y="745.595" fill="none" width="283.983" height="20.596"/>
<text transform="matrix(0.7 0 0 0.7 -54.374 763.0742)" font-family="'OpenSans-Semibold'" font-size="23">www</text>
<text transform="matrix(1 0 0 1 -8.6924 763.0742)" font-family="'OpenSans-Semibold'" font-size="23">.</text>
<text transform="matrix(0.7 0 0 0.7 -2.3682 763.0742)" font-family="'OpenSans-Semibold'" font-size="23">brendarychter</text>
<text transform="matrix(1 0 0 1 133.1045 763.0742)" font-family="'OpenSans-Semibold'" font-size="23">.</text>
<text transform="matrix(0.7 0 0 0.7 139.4287 763.0742)" font-family="'OpenSans-Semibold'" font-size="23">com</text>
<text transform="matrix(1 0 0 1 177.1631 763.0742)" font-family="'OpenSans-Semibold'" font-size="23">.</text>
<text transform="matrix(0.7 0 0 0.7 183.4854 763.0742)" font-family="'OpenSans-Semibold'" font-size="23">ar</text>
<image overflow="visible" width="564" height="766" xlink:href="../../../../../../Users/brenrychter/Desktop/Senior/07a656fa094e5cdd846d9f37234d94c1.jpg"  transform="matrix(1 0 0 1 -1003.7822 -166.9814)">
</image>
<line fill="none" stroke="#59595A" stroke-width="0.5" stroke-miterlimit="10" x1="-343.06" y1="340.999" x2="215.273" y2="340.999"/>
<line fill="none" stroke="#59595A" stroke-width="0.5" stroke-miterlimit="10" x1="-343.06" y1="731.332" x2="215.273" y2="731.332"/>
<line fill="none" stroke="#59595A" stroke-width="0.5" stroke-miterlimit="10" x1="-342.06" y1="176.019" x2="209.888" y2="176.019"/>
<rect x="152.939" y="143.999" fill="#F5C31C" width="62.964" height="62.275"/>
<circle fill="#0D0D0D" cx="184.421" cy="175.136" r="14.863"/>
<line fill="none" stroke="#59595A" stroke-width="0.5" stroke-miterlimit="10" x1="-344.06" y1="527.251" x2="214.273" y2="527.251"/>
<line fill="none" stroke="#59595A" stroke-width="0.5" stroke-miterlimit="10" x1="-343.06" y1="644.999" x2="215.273" y2="644.999"/>
<g>
	<g>
		<path fill="#FFFFFF" d="M179.014,175.034c-1.034-0.329-1.802-0.872-2.311-1.627c-0.507-0.755-0.761-1.684-0.761-2.783
			c0-1.511,0.425-2.643,1.274-3.395c0.851-0.751,2.166-1.127,3.944-1.127h3.414v9.183l-0.999,0.074h-2.064h-0.18l-0.654-0.042
			l-0.99-0.126L179.014,175.034z M183.576,167.134h-2.375c-1.479,0-2.545,0.285-3.198,0.853c-0.654,0.568-0.98,1.477-0.98,2.726
			c0,1.205,0.334,2.115,1,2.733c0.666,0.617,1.742,1.021,2.951,1.021l2.624,0.02L183.576,167.134z"/>
	</g>
	<g>
		<path fill="#FFFFFF" d="M183.394,174.753l-6.863,8.448l1.571,0.036l6.521-8.117C184.622,175.121,184.787,174.381,183.394,174.753z
			"/>
	</g>
	<g>
		<path fill="#FFFFFF" d="M188.367,175.191l-0.991,0.126l-0.653,0.042h-0.181h-2.064l-0.998-0.074v-9.183h3.412
			c1.78,0,3.095,0.376,3.946,1.127c0.849,0.751,1.273,1.884,1.273,3.395c0,1.099-0.254,2.027-0.76,2.783
			c-0.51,0.755-1.277,1.298-2.311,1.627L188.367,175.191z M184.456,174.488l2.625-0.02c1.209,0,2.284-0.405,2.95-1.021
			c0.666-0.618,1-1.528,1-2.733c0-1.25-0.326-2.158-0.979-2.726c-0.654-0.568-1.721-0.853-3.199-0.853h-2.375L184.456,174.488z"/>
	</g>
	<g>
		<path fill="#FFFFFF" d="M183.426,174.522h3.746c1.952,0,3.395,0.412,4.329,1.237c0.932,0.825,1.398,2.067,1.398,3.725
			c0,1.207-0.279,2.225-0.834,3.054c-0.328,0.487-1.345,1.545-1.617,1.632L183.426,174.522z M190.616,182.582
			c0.732-0.678,1.098-1.677,1.098-2.999c0-1.371-0.358-2.368-1.075-2.992c-0.718-0.624-1.888-0.936-3.511-0.936h-2.605
			C184.522,175.655,189.885,183.259,190.616,182.582z"/>
	</g>
	<g>
		<path fill="#FFFFFF" d="M183.432,175.121l6.337,8.117l1.525-0.036l-6.67-8.448C183.271,174.381,183.432,175.121,183.432,175.121z"
			/>
	</g>
</g>
<g>
	<path fill="#FFFFFF" d="M314.729,201.744c-0.72-0.258-1.255-0.683-1.609-1.274c-0.353-0.592-0.529-1.318-0.529-2.18
		c0-1.184,0.296-2.07,0.888-2.659c0.593-0.589,1.509-0.883,2.748-0.883h2.378v7.193l-0.696,0.058h-1.438h-0.126l-0.455-0.032
		l-0.69-0.099L314.729,201.744z M317.908,195.557h-1.654c-1.03,0-1.772,0.223-2.229,0.668c-0.455,0.445-0.683,1.157-0.683,2.136
		c0,0.943,0.232,1.657,0.697,2.14c0.464,0.483,1.213,0.8,2.056,0.8l1.828,0.016L317.908,195.557z"/>
</g>
<g>
	<path fill="#FFFFFF" d="M317.776,201.744l-4.604,5.854l1.054,0.025l4.375-5.624C318.601,201.999,318.711,201.486,317.776,201.744z"
		/>
</g>
<g>
	<path fill="#FFFFFF" d="M318.996,201.868l-0.69,0.099l-0.455,0.032h-0.126h-1.438l-0.696-0.058v-7.193h2.378
		c1.239,0,2.155,0.294,2.748,0.883c0.592,0.589,0.888,1.475,0.888,2.659c0,0.861-0.177,1.588-0.529,2.18
		c-0.354,0.592-0.89,1.017-1.609,1.274L318.996,201.868z M316.271,201.316l1.828-0.016c0.843,0,1.592-0.317,2.056-0.8
		c0.465-0.483,0.697-1.197,0.697-2.14c0-0.979-0.228-1.69-0.683-2.136c-0.456-0.445-1.198-0.668-2.229-0.668h-1.654L316.271,201.316
		z"/>
</g>
<g>
	<path fill="#FFFFFF" d="M315.595,201.999l4.375,5.624l1.054-0.025l-4.604-5.854C315.484,201.486,315.595,201.999,315.595,201.999z"
		/>
</g>
<g>
	<text transform="matrix(0.7 0 0 0.7 -338.4644 397.019)" fill="#4A494A" font-family="'Avenir-Medium'" font-size="16">desarrollo</text>
	<text transform="matrix(1 0 0 1 -265.2622 397.019)" fill="#4A494A" font-family="'Avenir-Medium'" font-size="16"> </text>
	<text transform="matrix(0.7 0 0 0.7 -260.814 397.019)" fill="#4A494A" font-family="'Avenir-Medium'" font-size="16">web</text>
</g>
<g>
	<text transform="matrix(0.7 0 0 0.7 -58.4639 397.019)" fill="#4A494A" font-family="'Avenir-Medium'" font-size="16">diseño</text>
</g>
<g>
	<text transform="matrix(0.7 0 0 0.7 78.2432 397.019)" fill="#4A494A" font-family="'Avenir-Medium'" font-size="16">sistemas</text>
	<text transform="matrix(1 0 0 1 131.3428 397.019)" fill="#4A494A" font-family="'Avenir-Medium'" font-size="16"> </text>
	<text transform="matrix(0.7 0 0 0.7 135.79 397.019)" fill="#4A494A" font-family="'Avenir-Medium'" font-size="16">operativos</text>
</g>
<text transform="matrix(1 0 0 1 -186.6343 419.1982)"><tspan x="0" y="0" font-family="'OpenSans-Light'" font-size="14">node js</tspan><tspan x="0" y="23" font-family="'OpenSans-Light'" font-size="14">EXPRESS</tspan><tspan x="0" y="46" font-family="'OpenSans-Light'" font-size="14">angular</tspan><tspan x="0" y="69" font-family="'OpenSans-Light'" font-size="14">PHP</tspan><tspan x="0" y="92" font-family="'OpenSans-Light'" font-size="14">MYSQL</tspan></text>
<text transform="matrix(1 0 0 1 -284.562 627.7236)" fill="#231F20" font-family="'OpenSans-Light'" font-size="15">Comunicación Digitales en Escuelas Técnicas ORT</text>
<circle fill="#0D0D0D" cx="36" cy="36" r="26.862"/>
<g>
	<g>
		<path fill="#FFFFFF" d="M26.227,35.815c-1.87-0.595-3.258-1.577-4.177-2.94c-0.916-1.365-1.375-3.043-1.375-5.03
			c0-2.73,0.769-4.777,2.304-6.135c1.537-1.357,3.914-2.037,7.129-2.037h6.171v16.597l-1.807,0.134h-3.73h-0.325l-1.182-0.076
			L27.443,36.1L26.227,35.815z M34.472,21.538H30.18c-2.673,0-4.6,0.515-5.78,1.542c-1.183,1.027-1.772,2.668-1.772,4.927
			c0,2.178,0.604,3.823,1.808,4.939c1.204,1.114,3.148,1.846,5.334,1.846l4.742,0.036L34.472,21.538z"/>
	</g>
	<g>
		<path fill="#FFFFFF" d="M34.142,35.307L21.737,50.576l2.84,0.065l11.785-14.669C36.362,35.972,36.66,34.635,34.142,35.307z"/>
	</g>
	<g>
		<path fill="#FFFFFF" d="M43.131,36.1l-1.791,0.228l-1.181,0.076h-0.327h-3.731l-1.803-0.134V19.672h6.167
			c3.217,0,5.593,0.68,7.132,2.037c1.533,1.358,2.302,3.405,2.302,6.135c0,1.986-0.459,3.665-1.374,5.03
			c-0.921,1.364-2.308,2.346-4.176,2.94L43.131,36.1z M36.062,34.828l4.744-0.036c2.185,0,4.129-0.732,5.332-1.846
			c1.203-1.117,1.808-2.762,1.808-4.939c0-2.258-0.59-3.9-1.771-4.927c-1.183-1.027-3.11-1.542-5.781-1.542h-4.294L36.062,34.828z"
			/>
	</g>
	<g>
		<path fill="#FFFFFF" d="M34.201,34.891h6.77c3.528,0,6.136,0.745,7.824,2.236c1.685,1.49,2.527,3.736,2.527,6.732
			c0,2.181-0.505,4.021-1.508,5.52c-0.592,0.881-2.43,2.793-2.922,2.951L34.201,34.891z M47.196,49.457
			c1.323-1.225,1.983-3.031,1.983-5.42c0-2.478-0.648-4.279-1.943-5.408c-1.297-1.128-3.412-1.691-6.345-1.691h-4.709
			C36.183,36.938,45.874,50.681,47.196,49.457z"/>
	</g>
	<g>
		<path fill="#FFFFFF" d="M34.211,35.972l11.453,14.669l2.756-0.065L36.366,35.307C33.92,34.635,34.211,35.972,34.211,35.972z"/>
	</g>
</g>
</svg>
